<svg width="1200" height="700" viewBox="0 0 1200 700" fill="none" xmlns="http://www.w3.org/2000/svg">
<rect width="1200" height="700" fill="#283351"/>
<rect x="112" y="187" width="326" height="326" rx="163" fill="#2F3851"/>
<path d="M407.539 346.26C409.881 348.223 409.881 351.777 407.539 353.74C387.954 370.155 308.463 435 274.978 435C241.494 435 162.003 370.155 142.418 353.74C140.076 351.777 140.076 348.223 142.418 346.26C162.003 329.845 241.494 265 274.978 265C308.463 265 387.954 329.845 407.539 346.26Z" fill="#485E99"/>
<ellipse cx="274.978" cy="350" rx="83.1655" ry="85" fill="#485E99"/>
<circle cx="274.367" cy="350" r="63.8777" fill="white" stroke="#FF8B8B" stroke-width="8"/>
<circle cx="256.022" cy="335.324" r="39.4173" fill="#283351" stroke="#FF8B8B" stroke-width="8"/>
<rect x="112" y="187" width="326" height="326" rx="163" stroke="#FF8B8B" stroke-width="14"/>
<path d="M494.641 357.633V375H482.301V323.812H502.727C506.641 323.812 510.098 324.539 513.098 325.992C516.121 327.422 518.453 329.473 520.094 332.145C521.758 334.793 522.59 337.805 522.59 341.18C522.59 346.172 520.797 350.168 517.211 353.168C513.648 356.145 508.75 357.633 502.516 357.633H494.641ZM494.641 348.105H502.727C505.117 348.105 506.934 347.508 508.176 346.312C509.441 345.117 510.074 343.43 510.074 341.25C510.074 338.859 509.43 336.949 508.141 335.52C506.852 334.09 505.094 333.363 502.867 333.34H494.641V348.105ZM548.219 356.93H541.539V375H529.199V323.812H549.344C555.414 323.812 560.16 325.16 563.582 327.855C567.004 330.551 568.715 334.359 568.715 339.281C568.715 342.844 567.988 345.797 566.535 348.141C565.105 350.484 562.855 352.383 559.785 353.836L570.473 374.473V375H557.254L548.219 356.93ZM541.539 347.402H549.344C551.688 347.402 553.445 346.793 554.617 345.574C555.812 344.332 556.41 342.609 556.41 340.406C556.41 338.203 555.812 336.48 554.617 335.238C553.422 333.973 551.664 333.34 549.344 333.34H541.539V347.402ZM619.516 350.461C619.516 355.453 618.59 359.871 616.738 363.715C614.887 367.559 612.25 370.523 608.828 372.609C605.43 374.672 601.551 375.703 597.191 375.703C592.832 375.703 588.965 374.707 585.59 372.715C582.215 370.699 579.578 367.828 577.68 364.102C575.805 360.375 574.82 356.098 574.727 351.27V348.387C574.727 343.371 575.641 338.953 577.469 335.133C579.32 331.289 581.957 328.324 585.379 326.238C588.824 324.152 592.738 323.109 597.121 323.109C601.457 323.109 605.324 324.141 608.723 326.203C612.121 328.266 614.758 331.207 616.633 335.027C618.531 338.824 619.492 343.184 619.516 348.105V350.461ZM606.965 348.316C606.965 343.23 606.109 339.375 604.398 336.75C602.711 334.102 600.285 332.777 597.121 332.777C590.934 332.777 587.664 337.418 587.312 346.699L587.277 350.461C587.277 355.477 588.109 359.332 589.773 362.027C591.438 364.723 593.91 366.07 597.191 366.07C600.309 366.07 602.711 364.746 604.398 362.098C606.086 359.449 606.941 355.641 606.965 350.672V348.316ZM644.969 361.078L655.164 323.812H668.945L651.719 375H638.219L621.133 323.812H634.809L644.969 361.078ZM685.855 375H673.551V323.812H685.855V375ZM720.836 361.395C720.836 359.59 720.191 358.184 718.902 357.176C717.637 356.168 715.398 355.125 712.188 354.047C708.977 352.969 706.352 351.926 704.312 350.918C697.68 347.66 694.363 343.184 694.363 337.488C694.363 334.652 695.184 332.156 696.824 330C698.488 327.82 700.832 326.133 703.855 324.938C706.879 323.719 710.277 323.109 714.051 323.109C717.73 323.109 721.023 323.766 723.93 325.078C726.859 326.391 729.133 328.266 730.75 330.703C732.367 333.117 733.176 335.883 733.176 339H720.871C720.871 336.914 720.227 335.297 718.938 334.148C717.672 333 715.949 332.426 713.77 332.426C711.566 332.426 709.82 332.918 708.531 333.902C707.266 334.863 706.633 336.094 706.633 337.594C706.633 338.906 707.336 340.102 708.742 341.18C710.148 342.234 712.621 343.336 716.16 344.484C719.699 345.609 722.605 346.828 724.879 348.141C730.41 351.328 733.176 355.723 733.176 361.324C733.176 365.801 731.488 369.316 728.113 371.871C724.738 374.426 720.109 375.703 714.227 375.703C710.078 375.703 706.316 374.965 702.941 373.488C699.59 371.988 697.059 369.949 695.348 367.371C693.66 364.77 692.816 361.781 692.816 358.406H705.191C705.191 361.148 705.895 363.176 707.301 364.488C708.73 365.777 711.039 366.422 714.227 366.422C716.266 366.422 717.871 365.988 719.043 365.121C720.238 364.23 720.836 362.988 720.836 361.395ZM752.652 375H740.348V323.812H752.652V375ZM804.578 350.461C804.578 355.453 803.652 359.871 801.801 363.715C799.949 367.559 797.312 370.523 793.891 372.609C790.492 374.672 786.613 375.703 782.254 375.703C777.895 375.703 774.027 374.707 770.652 372.715C767.277 370.699 764.641 367.828 762.742 364.102C760.867 360.375 759.883 356.098 759.789 351.27V348.387C759.789 343.371 760.703 338.953 762.531 335.133C764.383 331.289 767.02 328.324 770.441 326.238C773.887 324.152 777.801 323.109 782.184 323.109C786.52 323.109 790.387 324.141 793.785 326.203C797.184 328.266 799.82 331.207 801.695 335.027C803.594 338.824 804.555 343.184 804.578 348.105V350.461ZM792.027 348.316C792.027 343.23 791.172 339.375 789.461 336.75C787.773 334.102 785.348 332.777 782.184 332.777C775.996 332.777 772.727 337.418 772.375 346.699L772.34 350.461C772.34 355.477 773.172 359.332 774.836 362.027C776.5 364.723 778.973 366.07 782.254 366.07C785.371 366.07 787.773 364.746 789.461 362.098C791.148 359.449 792.004 355.641 792.027 350.672V348.316ZM853.691 375H841.422L823.281 343.148V375H810.941V323.812H823.281L841.387 355.664V323.812H853.691V375ZM904.281 375H892.012V353.625H873.836V375H861.496V323.812H873.836V344.133H892.012V323.812H904.281V375ZM941.828 365.438H924.918L921.965 375H908.781L927.555 323.812H939.156L958.07 375H944.816L941.828 365.438ZM927.871 355.91H938.875L933.355 338.156L927.871 355.91ZM1002.47 357.668C1002.31 361.23 1001.35 364.383 999.59 367.125C997.832 369.844 995.359 371.953 992.172 373.453C989.008 374.953 985.387 375.703 981.309 375.703C974.582 375.703 969.285 373.512 965.418 369.129C961.551 364.746 959.617 358.559 959.617 350.566V348.035C959.617 343.02 960.484 338.637 962.219 334.887C963.977 331.113 966.496 328.207 969.777 326.168C973.059 324.105 976.855 323.074 981.168 323.074C987.379 323.074 992.371 324.715 996.145 327.996C999.918 331.254 1002.06 335.754 1002.58 341.496H990.273C990.18 338.379 989.395 336.141 987.918 334.781C986.441 333.422 984.191 332.742 981.168 332.742C978.098 332.742 975.848 333.891 974.418 336.188C972.988 338.484 972.238 342.152 972.168 347.191V350.812C972.168 356.273 972.848 360.176 974.207 362.52C975.59 364.863 977.957 366.035 981.309 366.035C984.145 366.035 986.312 365.367 987.812 364.031C989.312 362.695 990.109 360.574 990.203 357.668H1002.47ZM1025.71 355.945L1020.65 361.5V375H1008.31V323.812H1020.65V346.383L1024.94 339.879L1035.98 323.812H1051.23L1033.94 346.453L1051.23 375H1036.61L1025.71 355.945ZM1080.77 361.395C1080.77 359.59 1080.12 358.184 1078.83 357.176C1077.57 356.168 1075.33 355.125 1072.12 354.047C1068.91 352.969 1066.28 351.926 1064.24 350.918C1057.61 347.66 1054.29 343.184 1054.29 337.488C1054.29 334.652 1055.11 332.156 1056.75 330C1058.42 327.82 1060.76 326.133 1063.79 324.938C1066.81 323.719 1070.21 323.109 1073.98 323.109C1077.66 323.109 1080.95 323.766 1083.86 325.078C1086.79 326.391 1089.06 328.266 1090.68 330.703C1092.3 333.117 1093.11 335.883 1093.11 339H1080.8C1080.8 336.914 1080.16 335.297 1078.87 334.148C1077.6 333 1075.88 332.426 1073.7 332.426C1071.5 332.426 1069.75 332.918 1068.46 333.902C1067.2 334.863 1066.56 336.094 1066.56 337.594C1066.56 338.906 1067.27 340.102 1068.67 341.18C1070.08 342.234 1072.55 343.336 1076.09 344.484C1079.63 345.609 1082.54 346.828 1084.81 348.141C1090.34 351.328 1093.11 355.723 1093.11 361.324C1093.11 365.801 1091.42 369.316 1088.04 371.871C1084.67 374.426 1080.04 375.703 1074.16 375.703C1070.01 375.703 1066.25 374.965 1062.87 373.488C1059.52 371.988 1056.99 369.949 1055.28 367.371C1053.59 364.77 1052.75 361.781 1052.75 358.406H1065.12C1065.12 361.148 1065.82 363.176 1067.23 364.488C1068.66 365.777 1070.97 366.422 1074.16 366.422C1076.2 366.422 1077.8 365.988 1078.97 365.121C1080.17 364.23 1080.77 362.988 1080.77 361.395Z" fill="#FF8B8B"/>
</svg>
