<svg width="2400" height="1496" viewBox="0 0 2400 1496" fill="none" xmlns="http://www.w3.org/2000/svg">
<rect x="77" y="128" width="2117" height="1241" rx="63" fill="#A1C4FD"/>
<rect x="267.212" y="264.238" width="1748" height="966" rx="63" fill="white"/>
<path d="M650.41 830.769L649.753 729.251L693.816 728.966C704.952 728.894 713.562 731.623 719.645 737.151C725.729 742.68 728.804 750.436 728.868 760.42C728.933 770.404 725.96 778.247 719.948 783.95C713.936 789.557 705.363 792.397 694.227 792.469L668.595 792.635L668.841 830.65L650.41 830.769ZM668.501 778.091L691.253 777.944C704.501 777.858 711.087 772.055 711.013 760.536C710.939 749.112 704.278 743.443 691.03 743.529L668.279 743.676L668.501 778.091ZM741.211 830.182L740.755 759.767L758.323 759.653L758.403 772.037C761.805 763.663 769.167 759.007 780.489 758.07L785.958 757.603L787.209 772.859L776.848 773.934C765.048 775.162 759.183 781.248 759.254 792.192L759.499 830.063L741.211 830.182ZM828.596 831.056C821.3 831.103 814.955 829.656 809.56 826.715C804.165 823.774 799.961 819.577 796.95 814.125C793.938 808.576 792.408 802.058 792.359 794.57C792.311 787.082 793.757 780.593 796.698 775.101C799.638 769.61 803.787 765.359 809.143 762.349C814.5 759.338 820.826 757.809 828.122 757.762C835.418 757.714 841.763 759.161 847.158 762.103C852.554 765.044 856.757 769.241 859.768 774.693C862.78 780.146 864.309 786.616 864.358 794.104C864.406 801.592 862.961 808.129 860.021 813.716C857.08 819.208 852.932 823.458 847.575 826.469C842.218 829.48 835.892 831.009 828.596 831.056ZM828.508 817.376C833.884 817.342 838.191 815.394 841.43 811.533C844.669 807.576 846.263 801.805 846.214 794.221C846.165 786.542 844.496 780.84 841.207 777.117C837.919 773.299 833.586 771.407 828.21 771.441C822.835 771.476 818.527 773.424 815.288 777.285C812.048 781.05 810.453 786.773 810.503 794.452C810.552 802.036 812.221 807.786 815.511 811.7C818.8 815.519 823.132 817.411 828.508 817.376ZM898.772 829.162L867.789 758.945L886.941 758.821L906.843 807.941L926.828 758.563L944.827 758.446L914.324 829.061L898.772 829.162ZM952.267 743.278L952.153 725.71L972.313 725.58L972.426 743.147L952.267 743.278ZM953.972 828.805L953.517 758.39L971.516 758.274L971.972 828.688L953.972 828.805ZM1016.46 829.84C1010.51 829.879 1004.94 829.195 999.742 827.788C994.549 826.382 990.215 824.346 986.742 821.68L991.274 809.843C994.841 812.22 998.837 814.066 1003.26 815.381C1007.69 816.601 1012.11 817.196 1016.52 817.168C1021.13 817.138 1024.53 816.348 1026.73 814.798C1029.02 813.151 1030.16 811.031 1030.15 808.439C1030.12 804.407 1027.13 801.835 1021.17 800.721L1006.75 798.078C994.543 795.853 988.406 789.557 988.339 779.189C988.309 774.581 989.531 770.589 992.006 767.213C994.576 763.837 998.111 761.222 1002.61 759.368C1007.11 757.515 1012.29 756.57 1018.15 756.532C1023.14 756.5 1027.94 757.188 1032.56 758.599C1037.18 759.913 1041.12 761.951 1044.41 764.714L1039.59 776.554C1036.79 774.268 1033.42 772.465 1029.47 771.147C1025.62 769.828 1021.92 769.18 1018.37 769.203C1013.67 769.233 1010.17 770.072 1007.88 771.719C1005.68 773.365 1004.59 775.532 1004.61 778.22C1004.63 782.444 1007.39 785.018 1012.86 785.943L1027.28 788.585C1033.53 789.697 1038.25 791.779 1041.43 794.83C1044.72 797.881 1046.38 801.998 1046.41 807.182C1046.45 814.19 1043.75 819.727 1038.31 823.795C1032.86 827.766 1025.58 829.781 1016.46 829.84ZM1059.28 742.585L1059.17 725.018L1079.33 724.887L1079.44 742.455L1059.28 742.585ZM1060.99 828.112L1060.53 757.698L1078.53 757.581L1078.99 827.996L1060.99 828.112ZM1129.81 829.107C1122.51 829.154 1116.17 827.707 1110.77 824.766C1105.38 821.825 1101.17 817.628 1098.16 812.175C1095.15 806.627 1093.62 800.108 1093.57 792.62C1093.52 785.133 1094.97 778.643 1097.91 773.152C1100.85 767.661 1105 763.41 1110.36 760.399C1115.71 757.388 1122.04 755.859 1129.33 755.812C1136.63 755.765 1142.98 757.212 1148.37 760.153C1153.77 763.094 1157.97 767.291 1160.98 772.744C1163.99 778.196 1165.52 784.667 1165.57 792.155C1165.62 799.642 1164.17 806.18 1161.23 811.767C1158.29 817.258 1154.14 821.509 1148.79 824.52C1143.43 827.531 1137.1 829.06 1129.81 829.107ZM1129.72 815.427C1135.1 815.392 1139.4 813.444 1142.64 809.583C1145.88 805.626 1147.48 799.856 1147.43 792.272C1147.38 784.592 1145.71 778.891 1142.42 775.168C1139.13 771.349 1134.8 769.457 1129.42 769.492C1124.05 769.527 1119.74 771.475 1116.5 775.336C1113.26 779.101 1111.67 784.823 1111.72 792.503C1111.76 800.087 1113.43 805.836 1116.72 809.751C1120.01 813.57 1124.34 815.462 1129.72 815.427ZM1180.66 827.338L1180.2 756.923L1197.77 756.809L1197.84 767.753C1200.21 763.706 1203.41 760.613 1207.43 758.475C1211.54 756.336 1216.14 755.25 1221.23 755.218C1237.84 755.11 1246.2 764.704 1246.33 784L1246.61 826.911L1228.61 827.027L1228.33 784.98C1228.3 779.508 1227.22 775.531 1225.09 773.049C1223.06 770.566 1219.88 769.339 1215.56 769.367C1210.28 769.401 1206.07 771.108 1202.92 774.488C1199.87 777.772 1198.36 782.15 1198.4 787.622L1198.65 827.221L1180.66 827.338ZM1266.62 826.781L1265.96 725.263L1284.39 725.144L1284.66 767.479L1336.94 767.141L1336.66 724.806L1355.09 724.687L1355.75 826.204L1337.32 826.324L1337.03 782.549L1284.76 782.887L1285.05 826.662L1266.62 826.781ZM1399.45 827.362C1394.37 827.395 1389.8 826.464 1385.75 824.57C1381.81 822.58 1378.67 819.912 1376.34 816.567C1374.11 813.221 1372.98 809.437 1372.96 805.213C1372.92 800.029 1374.24 795.94 1376.91 792.947C1379.58 789.857 1383.93 787.621 1389.97 786.238C1396.01 784.855 1404.12 784.131 1414.29 784.065L1419.33 784.032L1419.31 781.008C1419.28 776.208 1418.2 772.759 1416.08 770.661C1413.95 768.563 1410.39 767.53 1405.4 767.562C1401.47 767.587 1397.44 768.237 1393.32 769.512C1389.2 770.691 1385.03 772.542 1380.83 775.065L1375.56 762.859C1378.05 761.115 1380.97 759.608 1384.32 758.338C1387.77 756.972 1391.36 755.94 1395.1 755.244C1398.93 754.451 1402.53 754.044 1405.89 754.022C1416.16 753.956 1423.81 756.306 1428.83 761.074C1433.86 765.746 1436.4 773.073 1436.46 783.057L1436.74 825.68L1419.89 825.789L1419.82 814.558C1418.21 818.504 1415.64 821.641 1412.1 823.968C1408.57 826.199 1404.35 827.33 1399.45 827.362ZM1403.12 814.954C1407.82 814.923 1411.7 813.266 1414.75 809.982C1417.9 806.698 1419.45 802.56 1419.42 797.568L1419.4 794.4L1414.5 794.432C1405.48 794.49 1399.2 795.251 1395.65 796.714C1392.21 798.08 1390.5 800.587 1390.52 804.235C1390.54 807.403 1391.66 809.988 1393.88 811.989C1396.1 813.991 1399.18 814.979 1403.12 814.954ZM1487.56 826.791C1480.17 826.839 1473.73 825.393 1468.24 822.452C1462.75 819.416 1458.49 815.123 1455.48 809.575C1452.47 804.026 1450.94 797.508 1450.89 790.02C1450.84 782.532 1452.29 776.091 1455.23 770.695C1458.17 765.204 1462.37 761.001 1467.82 758.086C1473.27 755.074 1479.7 753.545 1487.09 753.497C1491.6 753.468 1496.07 754.159 1500.49 755.57C1504.92 756.982 1508.58 758.974 1511.48 761.547L1506.23 774.109C1503.72 771.918 1500.88 770.256 1497.7 769.125C1494.62 767.992 1491.64 767.436 1488.76 767.454C1482.52 767.495 1477.69 769.494 1474.26 773.452C1470.92 777.314 1469.28 782.845 1469.32 790.045C1469.37 797.148 1471.09 802.754 1474.47 806.86C1477.95 810.869 1482.82 812.854 1489.05 812.813C1491.84 812.795 1494.81 812.2 1497.97 811.028C1501.13 809.855 1503.95 808.109 1506.43 805.789L1511.84 818.426C1508.98 820.941 1505.3 822.981 1500.8 824.546C1496.39 826.014 1491.98 826.763 1487.56 826.791ZM1522.93 825.122L1522.27 723.605L1540.27 723.488L1540.67 784.543L1540.95 784.541L1569.13 754.406L1590.87 754.265L1559.12 788.167L1593.34 824.667L1571.31 824.809L1541.01 793.613L1540.73 793.615L1540.93 825.006L1522.93 825.122ZM1624.79 825.903C1618.84 825.942 1613.27 825.258 1608.07 823.851C1602.88 822.445 1598.55 820.409 1595.07 817.743L1599.6 805.906C1603.17 808.283 1607.17 810.129 1611.59 811.444C1616.02 812.664 1620.44 813.259 1624.85 813.231C1629.46 813.201 1632.86 812.411 1635.06 810.86C1637.35 809.214 1638.49 807.094 1638.48 804.502C1638.45 800.47 1635.46 797.898 1629.5 796.784L1615.08 794.141C1602.87 791.916 1596.74 785.62 1596.67 775.252C1596.64 770.644 1597.86 766.652 1600.34 763.276C1602.91 759.899 1606.44 757.285 1610.94 755.431C1615.44 753.578 1620.62 752.633 1626.48 752.595C1631.47 752.562 1636.27 753.251 1640.89 754.662C1645.51 755.976 1649.46 758.014 1652.74 760.777L1647.92 772.616C1645.12 770.331 1641.75 768.528 1637.8 767.21C1633.95 765.891 1630.25 765.243 1626.7 765.266C1622 765.296 1618.5 766.135 1616.21 767.782C1614.01 769.428 1612.92 771.595 1612.94 774.283C1612.96 778.507 1615.72 781.081 1621.19 782.006L1635.61 784.648C1641.86 785.76 1646.58 787.841 1649.76 790.893C1653.05 793.944 1654.71 798.061 1654.74 803.245C1654.79 810.253 1652.09 815.79 1646.64 819.858C1641.19 823.829 1633.91 825.844 1624.79 825.903Z" fill="#0E0E0E"/>
<rect x="210.436" width="473" height="871" rx="40" transform="rotate(13.9812 210.436 0)" fill="#FF9898"/>
<rect x="1694.21" y="769.067" width="548.178" height="502.833" rx="70" transform="rotate(-24.0991 1694.21 769.067)" fill="#9F9DFF"/>
<ellipse cx="1890.24" cy="879.169" rx="32.1005" ry="48.1507" transform="rotate(-29.339 1890.24 879.169)" fill="black"/>
<ellipse cx="2087.35" cy="758.646" rx="32.1005" ry="48.1507" transform="rotate(-28.8382 2087.35 758.646)" fill="black"/>
<path d="M2219.66 873.49C2216.84 850.894 2209.69 829.061 2198.59 809.187C2196.72 805.847 2192.08 804.951 2189.16 807.824C2180.51 816.344 2113.78 881.316 2061.9 911.751C2005.34 944.925 1907.15 971.829 1894.8 975.137C1890.99 976.157 1889.18 980.512 1891.16 983.933C1902.56 1003.64 1917.66 1020.96 1935.63 1034.95C1953.96 1049.2 1974.91 1059.71 1997.3 1065.87C2019.69 1072.03 2043.07 1073.72 2066.11 1070.85C2089.15 1067.97 2111.4 1060.59 2131.59 1049.11C2151.77 1037.64 2169.5 1022.3 2183.76 1003.97C2198.02 985.645 2208.53 964.689 2214.69 942.301C2220.85 919.913 2222.54 896.531 2219.66 873.49Z" fill="#171921" stroke="#171921" stroke-width="10"/>
<mask id="mask0" mask-type="alpha" maskUnits="userSpaceOnUse" x="1894" y="810" width="385" height="320">
<path d="M2193.58 810.484C2204.73 830.099 2211.91 851.719 2214.7 874.109C2217.5 896.499 2215.86 919.22 2209.87 940.975C2203.88 962.73 2193.67 983.093 2179.82 1000.9C2165.96 1018.71 2148.73 1033.61 2129.12 1044.76C2109.5 1055.91 2087.88 1063.09 2065.49 1065.89C2043.1 1068.68 2020.38 1067.04 1998.63 1061.05C1976.87 1055.07 1956.51 1044.85 1938.7 1031C1920.89 1017.14 1905.99 999.916 1894.84 980.3L2193.58 810.484Z" fill="#171921"/>
</mask>
<g mask="url(#mask0)">
<circle cx="2141.02" cy="1065.61" r="115.44" transform="rotate(-29.6154 2141.02 1065.61)" fill="#FC909F"/>
</g>
<rect x="1376.42" y="878.238" width="588.862" height="581.29" rx="70" transform="rotate(3.57096 1376.42 878.238)" fill="#FFC38C"/>
<path d="M268.302 323.278C262.853 321.921 258.496 319.748 255.234 316.759C252.018 313.782 249.902 310.164 248.885 305.904C247.868 301.644 248.003 296.929 249.29 291.759C250.589 286.542 252.709 282.296 255.652 279.022C258.605 275.701 262.224 273.486 266.507 272.376C270.802 271.219 275.581 271.296 280.844 272.607C284.291 273.465 287.4 274.783 290.173 276.562C292.957 278.294 295.13 280.294 296.692 282.563L291.948 288.801C290.188 286.533 288.26 284.742 286.163 283.428C284.066 282.115 281.644 281.116 278.896 280.432C273.679 279.133 269.343 279.661 265.888 282.016C262.479 284.382 260.067 288.407 258.652 294.09C257.226 299.819 257.516 304.516 259.521 308.181C261.527 311.846 265.232 314.351 270.635 315.697C272.172 316.079 273.761 316.351 275.403 316.513C277.103 316.639 278.808 316.643 280.52 316.525L283.372 305.067L272.054 302.249L273.706 295.612L292.501 300.291L286.604 323.976C284.043 324.526 281.121 324.738 277.838 324.613C274.555 324.488 271.376 324.043 268.302 323.278ZM312.062 334.173C308.196 333.21 305.045 331.659 302.61 329.519C300.175 327.38 298.519 324.791 297.643 321.753C296.814 318.727 296.851 315.398 297.756 311.765C298.637 308.225 300.13 305.307 302.235 303.012C304.387 300.728 306.929 299.16 309.862 298.307C312.853 297.419 316.002 297.387 319.309 298.21C324.153 299.417 327.59 301.905 329.619 305.675C331.695 309.456 332.072 314.002 330.75 319.312L330.106 321.897L305.653 315.808C304.786 322.073 307.52 325.993 313.854 327.57C315.764 328.046 317.743 328.242 319.792 328.158C321.852 328.028 323.831 327.532 325.728 326.668L326.712 333.146C324.745 334.091 322.429 334.652 319.764 334.829C317.098 335.006 314.531 334.788 312.062 334.173ZM318.18 304.236C315.618 303.598 313.348 303.874 311.37 305.063C309.392 306.253 307.904 308.158 306.905 310.778L324.093 315.057C324.614 312.17 324.361 309.807 323.335 307.968C322.367 306.095 320.649 304.851 318.18 304.236ZM333.265 338.71L341.772 304.545L350.295 306.667L348.973 311.977C350.625 310.311 352.556 309.209 354.768 308.671C357.026 308.145 359.389 308.19 361.858 308.804C369.916 310.81 372.779 316.495 370.448 325.857L365.264 346.677L356.531 344.503L361.61 324.102C362.271 321.447 362.24 319.386 361.517 317.92C360.841 316.465 359.454 315.477 357.358 314.955C354.796 314.317 352.544 314.622 350.601 315.87C348.716 317.082 347.443 319.016 346.782 321.671L341.999 340.885L333.265 338.71ZM390.799 353.777C386.933 352.814 383.782 351.263 381.347 349.123C378.912 346.984 377.256 344.395 376.38 341.357C375.551 338.331 375.588 335.002 376.493 331.369C377.374 327.829 378.867 324.911 380.972 322.615C383.124 320.332 385.666 318.763 388.599 317.911C391.59 317.023 394.739 316.991 398.046 317.814C402.89 319.02 406.327 321.508 408.356 325.278C410.432 329.06 410.809 333.606 409.487 338.916L408.843 341.501L384.39 335.412C383.523 341.676 386.256 345.597 392.591 347.174C394.501 347.65 396.48 347.846 398.529 347.762C400.589 347.632 402.568 347.135 404.465 346.272L405.449 352.75C403.482 353.695 401.166 354.256 398.5 354.433C395.835 354.61 393.267 354.391 390.799 353.777ZM396.917 323.84C394.355 323.202 392.085 323.478 390.107 324.667C388.129 325.857 386.641 327.761 385.642 330.382L402.83 334.661C403.351 331.773 403.098 329.41 402.072 327.572C401.104 325.699 399.385 324.455 396.917 323.84ZM412.002 358.314L420.508 324.149L429.032 326.271L427.536 332.28C430.222 328.645 434.365 327.302 439.966 328.251L442.673 328.703L441.388 336.248L436.236 335.484C430.367 334.617 426.772 336.838 425.45 342.148L420.875 360.523L412.002 358.314ZM450.096 368.54C447.627 367.926 445.531 366.909 443.806 365.49C442.14 364.037 440.951 362.356 440.239 360.447C439.574 358.55 439.496 356.577 440.006 354.528C440.632 352.012 441.777 350.195 443.441 349.076C445.116 347.91 447.502 347.367 450.599 347.445C453.696 347.524 457.713 348.178 462.65 349.407L465.096 350.016L465.461 348.548C466.041 346.22 465.946 344.415 465.176 343.135C464.407 341.855 462.811 340.914 460.389 340.311C458.479 339.835 456.448 339.651 454.294 339.758C452.152 339.818 449.905 340.199 447.554 340.9L446.518 334.335C447.938 333.798 449.538 333.429 451.319 333.23C453.158 332.995 455.027 332.941 456.924 333.067C458.88 333.159 460.673 333.407 462.304 333.813C467.287 335.054 470.7 337.14 472.543 340.072C474.396 342.958 474.72 346.822 473.514 351.666L468.365 372.347L460.191 370.312L461.548 364.862C460.28 366.575 458.646 367.775 456.644 368.464C454.654 369.106 452.471 369.132 450.096 368.54ZM453.408 362.984C455.691 363.552 457.774 363.23 459.659 362.018C461.59 360.817 462.857 359.005 463.46 356.583L463.843 355.046L461.468 354.455C457.089 353.364 453.952 352.954 452.054 353.224C450.215 353.458 449.075 354.461 448.634 356.231C448.252 357.768 448.474 359.159 449.302 360.404C450.13 361.648 451.498 362.509 453.408 362.984ZM488.933 378.21C484.881 377.201 482.149 375.359 480.738 372.682C479.385 369.971 479.242 366.473 480.309 362.188L489.493 325.298L498.227 327.472L489.146 363.943C488.103 368.135 489.351 370.672 492.891 371.553C493.403 371.681 493.921 371.785 494.445 371.866C494.969 371.947 495.481 371.975 495.982 371.952L494.12 378.834C492.339 378.835 490.61 378.628 488.933 378.21Z" fill="white"/>
<path d="M217.882 475.609C214.016 474.646 210.551 473.264 207.488 471.463C204.436 469.615 201.983 467.545 200.13 465.253L204.612 458.875C206.488 461.073 208.667 462.951 211.148 464.509C213.676 466.078 216.547 467.263 219.761 468.063C223.44 468.979 226.269 469.041 228.248 468.247C230.238 467.407 231.476 466.009 231.963 464.052C232.369 462.422 232.082 460.991 231.103 459.757C230.171 458.536 228.336 457.263 225.599 455.938L218.314 452.418C210.021 448.375 206.762 442.79 208.536 435.663C209.301 432.589 210.783 430.114 212.982 428.237C215.18 426.361 217.88 425.154 221.081 424.615C224.282 424.076 227.769 424.277 231.542 425.216C234.895 426.051 237.912 427.346 240.591 429.102C243.282 430.81 245.379 432.816 246.883 435.12L242.489 441.149C239.434 436.926 235.136 434.124 229.593 432.744C226.379 431.944 223.696 431.993 221.543 432.892C219.39 433.79 218.041 435.334 217.496 437.523C217.079 439.2 217.301 440.69 218.164 441.993C219.038 443.249 220.757 444.493 223.319 445.725L230.534 449.228C234.902 451.354 237.943 453.744 239.657 456.396C241.417 459.061 241.863 462.14 240.993 465.633C240.262 468.567 238.827 470.955 236.686 472.797C234.546 474.638 231.852 475.822 228.605 476.349C225.415 476.841 221.841 476.594 217.882 475.609ZM256.509 485.226C248.125 483.139 245.104 477.39 247.446 467.982L252.613 447.231L261.346 449.406L256.145 470.296C255.542 472.718 255.585 474.633 256.273 476.041C256.961 477.449 258.376 478.42 260.519 478.953C262.848 479.533 264.955 479.217 266.84 478.004C268.736 476.745 270.015 474.788 270.676 472.133L275.459 452.919L284.193 455.094L275.686 489.259L267.163 487.137L268.432 482.036C265.188 485.334 261.213 486.397 256.509 485.226ZM281.645 504.098L293.283 457.357L301.806 459.479L300.449 464.929C301.892 463.309 303.73 462.184 305.964 461.553C308.246 460.934 310.644 460.938 313.159 461.564C316.14 462.306 318.569 463.677 320.445 465.678C322.368 467.69 323.627 470.18 324.224 473.148C324.832 476.07 324.678 479.37 323.762 483.05C322.857 486.683 321.44 489.694 319.51 492.082C317.591 494.424 315.334 496.039 312.739 496.926C310.144 497.813 307.332 497.88 304.305 497.126C301.883 496.523 299.821 495.466 298.12 493.954C296.477 492.407 295.363 490.621 294.779 488.596L290.378 506.272L281.645 504.098ZM303.512 489.88C306.12 490.529 308.448 490.12 310.496 488.651C312.555 487.135 314.043 484.538 314.959 480.858C315.886 477.132 315.785 474.163 314.653 471.953C313.534 469.695 311.669 468.242 309.061 467.592C306.453 466.943 304.125 467.353 302.077 468.821C300.041 470.244 298.559 472.818 297.632 476.544C296.716 480.224 296.812 483.216 297.92 485.52C299.04 487.777 300.904 489.231 303.512 489.88ZM323.538 514.529L335.175 467.787L343.699 469.91L342.342 475.359C343.784 473.74 345.623 472.615 347.857 471.984C350.139 471.365 352.537 471.368 355.052 471.994C358.033 472.737 360.462 474.108 362.338 476.108C364.261 478.121 365.52 480.611 366.117 483.579C366.725 486.5 366.571 489.801 365.655 493.481C364.75 497.114 363.333 500.124 361.403 502.513C359.484 504.855 357.227 506.469 354.632 507.356C352.037 508.244 349.225 508.31 346.198 507.557C343.776 506.954 341.714 505.896 340.013 504.384C338.37 502.838 337.256 501.052 336.672 499.027L332.271 516.703L323.538 514.529ZM345.405 500.31C348.013 500.96 350.341 500.55 352.389 499.081C354.448 497.566 355.936 494.968 356.852 491.289C357.779 487.562 357.678 484.594 356.546 482.383C355.426 480.126 353.562 478.672 350.954 478.023C348.346 477.373 346.018 477.783 343.97 479.252C341.934 480.674 340.452 483.248 339.525 486.975C338.608 490.654 338.704 493.646 339.813 495.95C340.932 498.208 342.797 499.661 345.405 500.31ZM383.968 516.961C380.429 516.079 377.534 514.592 375.285 512.499C373.036 510.405 371.521 507.851 370.738 504.837C369.966 501.776 370.033 498.429 370.938 494.796C371.842 491.163 373.347 488.198 375.452 485.903C377.557 483.608 380.093 482.063 383.061 481.268C386.029 480.474 389.283 480.517 392.823 481.398C396.363 482.28 399.257 483.767 401.506 485.86C403.755 487.954 405.271 490.508 406.054 493.522C406.836 496.537 406.776 499.86 405.871 503.494C404.966 507.127 403.456 510.114 401.339 512.456C399.234 514.752 396.698 516.297 393.73 517.091C390.762 517.886 387.508 517.842 383.968 516.961ZM385.621 510.323C388.229 510.973 390.557 510.563 392.605 509.094C394.664 507.579 396.152 504.981 397.068 501.302C397.996 497.575 397.894 494.607 396.762 492.396C395.643 490.139 393.778 488.685 391.17 488.036C388.562 487.386 386.234 487.796 384.186 489.265C382.15 490.687 380.669 493.261 379.741 496.988C378.825 500.667 378.921 503.659 380.029 505.963C381.149 508.221 383.013 509.674 385.621 510.323ZM408.817 522.406L417.324 488.241L425.848 490.363L424.352 496.371C427.037 492.737 431.18 491.394 436.781 492.343L439.488 492.795L438.203 500.34L433.051 499.576C427.183 498.709 423.588 500.93 422.266 506.24L417.691 524.615L408.817 522.406ZM453.632 534.306C444.596 532.056 441.192 526.459 443.418 517.516L447.123 502.635L440.556 501L442.191 494.432L448.759 496.067L451.298 485.867L460.032 488.041L457.492 498.242L467.832 500.816L466.197 507.384L455.857 504.809L452.273 519.202C451.717 521.438 451.788 523.236 452.488 524.597C453.188 525.959 454.632 526.912 456.821 527.457C457.474 527.62 458.166 527.718 458.9 527.752C459.645 527.74 460.413 527.733 461.205 527.732L460.932 534.491C459.978 534.748 458.813 534.854 457.44 534.808C456.113 534.775 454.843 534.607 453.632 534.306Z" fill="white"/>
<path d="M141.081 621.66L135.948 568.073L145.171 570.369L148.352 609.744L170.253 576.614L176.89 578.266L180.299 618.218L202.042 584.529L210.776 586.703L180.975 631.593L173.57 629.749L169.918 591.073L148.487 623.504L141.081 621.66ZM215.442 640.917C211.902 640.035 209.008 638.548 206.759 636.455C204.51 634.361 202.994 631.807 202.211 628.793C201.44 625.732 201.506 622.385 202.411 618.752C203.316 615.119 204.82 612.154 206.925 609.859C209.03 607.563 211.567 606.018 214.534 605.224C217.502 604.429 220.756 604.473 224.296 605.354C227.836 606.236 230.73 607.723 232.979 609.816C235.228 611.91 236.744 614.464 237.527 617.478C238.31 620.492 238.249 623.816 237.344 627.449C236.44 631.082 234.929 634.07 232.813 636.412C230.708 638.707 228.171 640.252 225.204 641.047C222.236 641.841 218.982 641.798 215.442 640.917ZM217.094 634.279C219.703 634.929 222.031 634.519 224.078 633.05C226.137 631.535 227.625 628.937 228.541 625.258C229.469 621.531 229.367 618.563 228.236 616.352C227.116 614.094 225.252 612.641 222.644 611.992C220.035 611.342 217.707 611.752 215.66 613.221C213.624 614.643 212.142 617.217 211.214 620.943C210.298 624.623 210.394 627.615 211.502 629.919C212.622 632.176 214.486 633.63 217.094 634.279ZM240.291 646.361L248.797 612.197L257.321 614.319L255.825 620.327C258.511 616.693 262.654 615.35 268.255 616.299L270.962 616.75L269.677 624.295L264.524 623.532C258.656 622.665 255.061 624.886 253.739 630.196L249.164 648.571L240.291 646.361ZM267.651 653.174L279.915 603.917L288.648 606.092L281.272 635.715L281.412 635.75L298.794 624.645L309.344 627.271L289.763 639.758L301.816 661.68L291.126 659.018L280.316 640.152L280.177 640.117L276.384 655.348L267.651 653.174ZM316.895 666.176C314.008 665.457 311.393 664.435 309.052 663.11C306.71 661.786 304.864 660.262 303.512 658.541L307.174 653.368C308.607 654.962 310.314 656.351 312.294 657.537C314.286 658.676 316.353 659.512 318.496 660.045C320.732 660.602 322.478 660.641 323.735 660.163C325.05 659.649 325.864 658.764 326.177 657.506C326.664 655.55 325.533 653.933 322.785 652.655L316.129 649.588C310.491 646.997 308.299 643.186 309.552 638.156C310.108 635.92 311.195 634.138 312.812 632.809C314.475 631.492 316.512 630.664 318.921 630.324C321.331 629.984 323.956 630.168 326.798 630.875C329.22 631.478 331.462 632.407 333.523 633.662C335.597 634.871 337.257 636.348 338.504 638.093L334.703 643.231C333.63 641.777 332.22 640.486 330.473 639.358C328.772 638.242 327.06 637.47 325.337 637.041C323.054 636.472 321.256 636.445 319.941 636.959C318.672 637.484 317.876 638.398 317.551 639.702C317.041 641.752 318.055 643.34 320.594 644.467L327.25 647.534C330.139 648.847 332.166 650.44 333.332 652.313C334.544 654.198 334.837 656.398 334.211 658.913C333.365 662.313 331.37 664.661 328.228 665.956C325.098 667.205 321.32 667.278 316.895 666.176ZM338.678 670.858L350.942 621.601L359.675 623.776L354.683 643.828C356.311 642.255 358.219 641.246 360.407 640.801C362.607 640.31 364.895 640.36 367.27 640.952C375.328 642.958 378.192 648.642 375.861 658.004L370.677 678.825L361.944 676.65L367.023 656.249C367.684 653.594 367.653 651.534 366.93 650.068C366.253 648.613 364.867 647.625 362.771 647.103C360.209 646.465 357.957 646.77 356.014 648.017C354.129 649.23 352.856 651.164 352.195 653.819L347.411 673.032L338.678 670.858ZM394.954 685.611C391.414 684.73 388.519 683.242 386.271 681.149C384.022 679.056 382.506 676.502 381.723 673.487C380.952 670.426 381.018 667.079 381.923 663.446C382.827 659.813 384.332 656.849 386.437 654.553C388.542 652.258 391.078 650.713 394.046 649.919C397.014 649.124 400.268 649.168 403.808 650.049C407.348 650.93 410.242 652.418 412.491 654.511C414.74 656.604 416.256 659.158 417.039 662.173C417.822 665.187 417.761 668.511 416.856 672.144C415.952 675.777 414.441 678.765 412.325 681.107C410.22 683.402 407.683 684.947 404.715 685.742C401.748 686.536 398.494 686.493 394.954 685.611ZM396.606 678.974C399.215 679.623 401.543 679.214 403.59 677.745C405.649 676.229 407.137 673.632 408.053 669.952C408.981 666.226 408.879 663.257 407.748 661.047C406.628 658.789 404.764 657.336 402.155 656.686C399.547 656.037 397.219 656.447 395.172 657.915C393.136 659.338 391.654 661.912 390.726 665.638C389.81 669.318 389.906 672.31 391.014 674.614C392.134 676.871 393.998 678.324 396.606 678.974ZM416.672 703.632L428.309 656.891L436.833 659.013L435.476 664.463C436.918 662.843 438.756 661.718 440.991 661.087C443.272 660.468 445.67 660.472 448.186 661.098C451.167 661.84 453.595 663.212 455.471 665.212C457.394 667.224 458.654 669.714 459.25 672.682C459.859 675.604 459.705 678.905 458.789 682.584C457.884 686.217 456.467 689.228 454.536 691.616C452.618 693.958 450.361 695.573 447.766 696.46C445.17 697.347 442.359 697.414 439.331 696.66C436.909 696.057 434.848 695 433.146 693.488C431.504 691.941 430.39 690.155 429.806 688.13L425.405 705.807L416.672 703.632ZM438.539 689.414C441.147 690.064 443.475 689.654 445.522 688.185C447.581 686.67 449.069 684.072 449.985 680.392C450.913 676.666 450.811 673.698 449.68 671.487C448.56 669.229 446.696 667.776 444.088 667.126C441.479 666.477 439.151 666.887 437.104 668.356C435.068 669.778 433.586 672.352 432.658 676.078C431.742 679.758 431.838 682.75 432.946 685.054C434.066 687.311 435.93 688.765 438.539 689.414Z" fill="white"/>
<path fill-rule="evenodd" clip-rule="evenodd" d="M1506.46 1129.34C1506.68 1130.13 1507.72 1130.29 1508.22 1129.64C1517.43 1117.69 1533.87 1108.64 1553.41 1106.32C1565.46 1104.89 1576.96 1106.22 1586.77 1109.67C1587.5 1109.93 1588.25 1109.3 1588.08 1108.54C1583.39 1087.75 1563.65 1073.46 1542.03 1076.03C1518.92 1078.77 1502.42 1099.73 1505.16 1122.83C1505.43 1125.07 1505.87 1127.24 1506.46 1129.34Z" fill="#171921"/>
<path fill-rule="evenodd" clip-rule="evenodd" d="M1755.71 1090.46C1755.93 1091.25 1756.96 1091.41 1757.47 1090.76C1766.6 1078.92 1782.88 1069.97 1802.23 1067.67C1814.16 1066.25 1825.55 1067.57 1835.26 1070.98C1836 1071.24 1836.75 1070.61 1836.57 1069.85C1831.92 1049.27 1812.37 1035.11 1790.95 1037.66C1768.06 1040.38 1751.71 1061.14 1754.43 1084.03C1754.69 1086.23 1755.12 1088.38 1755.71 1090.46Z" fill="#171921"/>
<path d="M1812.16 1214.43C1818.23 1192.48 1819.99 1169.57 1817.37 1146.96C1816.93 1143.16 1812.98 1140.55 1809.18 1142.08C1797.92 1146.63 1711.38 1181.03 1651.79 1189.23C1586.83 1198.16 1485.83 1185.33 1473.16 1183.65C1469.25 1183.13 1465.9 1186.46 1466.42 1190.37C1469.39 1212.94 1476.68 1234.74 1487.92 1254.55C1499.37 1274.74 1514.69 1292.49 1533 1306.77C1551.31 1321.05 1572.25 1331.58 1594.63 1337.77C1617.02 1343.95 1640.4 1345.67 1663.44 1342.81C1686.48 1339.96 1708.74 1332.6 1728.94 1321.15C1749.14 1309.7 1766.89 1294.38 1781.16 1276.07C1795.44 1257.75 1805.98 1236.81 1812.16 1214.43Z" fill="#171921" stroke="#171921" stroke-width="10"/>
<mask id="mask1" mask-type="alpha" maskUnits="userSpaceOnUse" x="1471" y="1146" width="363" height="213">
<path d="M1812.25 1146.24C1815.02 1168.63 1813.35 1191.35 1807.34 1213.1C1801.33 1234.85 1791.1 1255.2 1777.22 1272.99C1763.35 1290.78 1746.1 1305.67 1726.47 1316.8C1706.85 1327.93 1685.22 1335.08 1662.83 1337.85C1640.43 1340.62 1617.71 1338.96 1595.97 1332.95C1574.22 1326.94 1553.87 1316.7 1536.07 1302.83C1518.28 1288.95 1503.39 1271.71 1492.27 1252.08C1481.14 1232.45 1473.98 1210.82 1471.21 1188.43L1812.25 1146.24Z" fill="#171921"/>
</mask>
<g mask="url(#mask1)">
<circle cx="1665.82" cy="1361.67" r="115.44" transform="rotate(-7.05286 1665.82 1361.67)" fill="#FC909F"/>
</g>
</svg>
