<svg width="2600" height="1696" viewBox="0 0 2600 1696" fill="none" xmlns="http://www.w3.org/2000/svg">
<g filter="url(#filter0_d)">
<rect x="177" y="224" width="2117" height="1241" rx="63" fill="#A1C4FD"/>
<rect x="367.212" y="360.238" width="1748" height="966" rx="63" fill="white"/>
<path d="M750.41 926.769L749.753 825.251L793.816 824.966C804.952 824.894 813.562 827.623 819.645 833.151C825.729 838.68 828.804 846.436 828.868 856.42C828.933 866.404 825.96 874.247 819.948 879.95C813.936 885.557 805.363 888.397 794.227 888.469L768.595 888.635L768.841 926.65L750.41 926.769ZM768.501 874.091L791.253 873.944C804.501 873.858 811.087 868.055 811.013 856.536C810.939 845.112 804.278 839.443 791.03 839.529L768.279 839.676L768.501 874.091ZM841.211 926.182L840.755 855.767L858.323 855.653L858.403 868.037C861.805 859.663 869.167 855.007 880.489 854.07L885.958 853.603L887.209 868.859L876.848 869.934C865.048 871.162 859.183 877.248 859.254 888.192L859.499 926.063L841.211 926.182ZM928.596 927.056C921.3 927.103 914.955 925.656 909.56 922.715C904.165 919.774 899.961 915.577 896.95 910.125C893.938 904.576 892.408 898.058 892.359 890.57C892.311 883.082 893.757 876.593 896.698 871.101C899.638 865.61 903.787 861.359 909.143 858.349C914.5 855.338 920.826 853.809 928.122 853.762C935.418 853.714 941.763 855.161 947.158 858.103C952.554 861.044 956.757 865.241 959.768 870.693C962.78 876.146 964.309 882.616 964.358 890.104C964.406 897.592 962.961 904.129 960.021 909.716C957.08 915.208 952.932 919.458 947.575 922.469C942.218 925.48 935.892 927.009 928.596 927.056ZM928.508 913.376C933.884 913.342 938.191 911.394 941.43 907.533C944.669 903.576 946.263 897.805 946.214 890.221C946.165 882.542 944.496 876.84 941.207 873.117C937.919 869.299 933.586 867.407 928.21 867.441C922.835 867.476 918.527 869.424 915.288 873.285C912.048 877.05 910.453 882.773 910.503 890.452C910.552 898.036 912.221 903.786 915.511 907.7C918.8 911.519 923.132 913.411 928.508 913.376ZM998.772 925.162L967.789 854.945L986.941 854.821L1006.84 903.941L1026.83 854.563L1044.83 854.446L1014.32 925.061L998.772 925.162ZM1052.27 839.278L1052.15 821.71L1072.31 821.58L1072.43 839.147L1052.27 839.278ZM1053.97 924.805L1053.52 854.39L1071.52 854.274L1071.97 924.688L1053.97 924.805ZM1116.46 925.84C1110.51 925.879 1104.94 925.195 1099.74 923.788C1094.55 922.382 1090.22 920.346 1086.74 917.68L1091.27 905.843C1094.84 908.22 1098.84 910.066 1103.26 911.381C1107.69 912.601 1112.11 913.196 1116.52 913.168C1121.13 913.138 1124.53 912.348 1126.73 910.798C1129.02 909.151 1130.16 907.031 1130.15 904.439C1130.12 900.407 1127.13 897.835 1121.17 896.721L1106.75 894.078C1094.54 891.853 1088.41 885.557 1088.34 875.189C1088.31 870.581 1089.53 866.589 1092.01 863.213C1094.58 859.837 1098.11 857.222 1102.61 855.368C1107.11 853.515 1112.29 852.57 1118.15 852.532C1123.14 852.5 1127.94 853.188 1132.56 854.599C1137.18 855.913 1141.12 857.951 1144.41 860.714L1139.59 872.554C1136.79 870.268 1133.42 868.465 1129.47 867.147C1125.62 865.828 1121.92 865.18 1118.37 865.203C1113.67 865.233 1110.17 866.072 1107.88 867.719C1105.68 869.365 1104.59 871.532 1104.61 874.22C1104.63 878.444 1107.39 881.018 1112.86 881.943L1127.28 884.585C1133.53 885.697 1138.25 887.779 1141.43 890.83C1144.72 893.881 1146.38 897.998 1146.41 903.182C1146.45 910.19 1143.75 915.727 1138.31 919.795C1132.86 923.766 1125.58 925.781 1116.46 925.84ZM1159.28 838.585L1159.17 821.018L1179.33 820.887L1179.44 838.455L1159.28 838.585ZM1160.99 924.112L1160.53 853.698L1178.53 853.581L1178.99 923.996L1160.99 924.112ZM1229.81 925.107C1222.51 925.154 1216.17 923.707 1210.77 920.766C1205.38 917.825 1201.17 913.628 1198.16 908.175C1195.15 902.627 1193.62 896.108 1193.57 888.62C1193.52 881.133 1194.97 874.643 1197.91 869.152C1200.85 863.661 1205 859.41 1210.36 856.399C1215.71 853.388 1222.04 851.859 1229.33 851.812C1236.63 851.765 1242.98 853.212 1248.37 856.153C1253.77 859.094 1257.97 863.291 1260.98 868.744C1263.99 874.196 1265.52 880.667 1265.57 888.155C1265.62 895.642 1264.17 902.18 1261.23 907.767C1258.29 913.258 1254.14 917.509 1248.79 920.52C1243.43 923.531 1237.1 925.06 1229.81 925.107ZM1229.72 911.427C1235.1 911.392 1239.4 909.444 1242.64 905.583C1245.88 901.626 1247.48 895.856 1247.43 888.272C1247.38 880.592 1245.71 874.891 1242.42 871.168C1239.13 867.349 1234.8 865.457 1229.42 865.492C1224.05 865.527 1219.74 867.475 1216.5 871.336C1213.26 875.101 1211.67 880.823 1211.72 888.503C1211.76 896.087 1213.43 901.836 1216.72 905.751C1220.01 909.57 1224.34 911.462 1229.72 911.427ZM1280.66 923.338L1280.2 852.923L1297.77 852.809L1297.84 863.753C1300.21 859.706 1303.41 856.613 1307.43 854.475C1311.54 852.336 1316.14 851.25 1321.23 851.218C1337.84 851.11 1346.2 860.704 1346.33 880L1346.61 922.911L1328.61 923.027L1328.33 880.98C1328.3 875.508 1327.22 871.531 1325.09 869.049C1323.06 866.566 1319.88 865.339 1315.56 865.367C1310.28 865.401 1306.07 867.108 1302.92 870.488C1299.87 873.772 1298.36 878.15 1298.4 883.622L1298.65 923.221L1280.66 923.338ZM1366.62 922.781L1365.96 821.263L1384.39 821.144L1384.66 863.479L1436.94 863.141L1436.66 820.806L1455.09 820.687L1455.75 922.204L1437.32 922.324L1437.03 878.549L1384.76 878.887L1385.05 922.662L1366.62 922.781ZM1499.45 923.362C1494.37 923.395 1489.8 922.464 1485.75 920.57C1481.81 918.58 1478.67 915.912 1476.34 912.567C1474.11 909.221 1472.98 905.437 1472.96 901.213C1472.92 896.029 1474.24 891.94 1476.91 888.947C1479.58 885.857 1483.93 883.621 1489.97 882.238C1496.01 880.855 1504.12 880.131 1514.29 880.065L1519.33 880.032L1519.31 877.008C1519.28 872.208 1518.2 868.759 1516.08 866.661C1513.95 864.563 1510.39 863.53 1505.4 863.562C1501.47 863.587 1497.44 864.237 1493.32 865.512C1489.2 866.691 1485.03 868.542 1480.83 871.065L1475.56 858.859C1478.05 857.115 1480.97 855.608 1484.32 854.338C1487.77 852.972 1491.36 851.94 1495.1 851.244C1498.93 850.451 1502.53 850.044 1505.89 850.022C1516.16 849.956 1523.81 852.306 1528.83 857.074C1533.86 861.746 1536.4 869.073 1536.46 879.057L1536.74 921.68L1519.89 921.789L1519.82 910.558C1518.21 914.504 1515.64 917.641 1512.1 919.968C1508.57 922.199 1504.35 923.33 1499.45 923.362ZM1503.12 910.954C1507.82 910.923 1511.7 909.266 1514.75 905.982C1517.9 902.698 1519.45 898.56 1519.42 893.568L1519.4 890.4L1514.5 890.432C1505.48 890.49 1499.2 891.251 1495.65 892.714C1492.21 894.08 1490.5 896.587 1490.52 900.235C1490.54 903.403 1491.66 905.988 1493.88 907.989C1496.1 909.991 1499.18 910.979 1503.12 910.954ZM1587.56 922.791C1580.17 922.839 1573.73 921.393 1568.24 918.452C1562.75 915.416 1558.49 911.123 1555.48 905.575C1552.47 900.026 1550.94 893.508 1550.89 886.02C1550.84 878.532 1552.29 872.091 1555.23 866.695C1558.17 861.204 1562.37 857.001 1567.82 854.086C1573.27 851.074 1579.7 849.545 1587.09 849.497C1591.6 849.468 1596.07 850.159 1600.49 851.57C1604.92 852.982 1608.58 854.974 1611.48 857.547L1606.23 870.109C1603.72 867.918 1600.88 866.256 1597.7 865.125C1594.62 863.992 1591.64 863.436 1588.76 863.454C1582.52 863.495 1577.69 865.494 1574.26 869.452C1570.92 873.314 1569.28 878.845 1569.32 886.045C1569.37 893.148 1571.09 898.754 1574.47 902.86C1577.95 906.869 1582.82 908.854 1589.05 908.813C1591.84 908.795 1594.81 908.2 1597.97 907.028C1601.13 905.855 1603.95 904.109 1606.43 901.789L1611.84 914.426C1608.98 916.941 1605.3 918.981 1600.8 920.546C1596.39 922.014 1591.98 922.763 1587.56 922.791ZM1622.93 921.122L1622.27 819.605L1640.27 819.488L1640.67 880.543L1640.95 880.541L1669.13 850.406L1690.87 850.265L1659.12 884.167L1693.34 920.667L1671.31 920.809L1641.01 889.613L1640.73 889.615L1640.93 921.006L1622.93 921.122ZM1724.79 921.903C1718.84 921.942 1713.27 921.258 1708.07 919.851C1702.88 918.445 1698.55 916.409 1695.07 913.743L1699.6 901.906C1703.17 904.283 1707.17 906.129 1711.59 907.444C1716.02 908.664 1720.44 909.259 1724.85 909.231C1729.46 909.201 1732.86 908.411 1735.06 906.86C1737.35 905.214 1738.49 903.094 1738.48 900.502C1738.45 896.47 1735.46 893.898 1729.5 892.784L1715.08 890.141C1702.87 887.916 1696.74 881.62 1696.67 871.252C1696.64 866.644 1697.86 862.652 1700.34 859.276C1702.91 855.899 1706.44 853.285 1710.94 851.431C1715.44 849.578 1720.62 848.633 1726.48 848.595C1731.47 848.562 1736.27 849.251 1740.89 850.662C1745.51 851.976 1749.46 854.014 1752.74 856.777L1747.92 868.616C1745.12 866.331 1741.75 864.528 1737.8 863.21C1733.95 861.891 1730.25 861.243 1726.7 861.266C1722 861.296 1718.5 862.135 1716.21 863.782C1714.01 865.428 1712.92 867.595 1712.94 870.283C1712.96 874.507 1715.72 877.081 1721.19 878.006L1735.61 880.648C1741.86 881.76 1746.58 883.841 1749.76 886.893C1753.05 889.944 1754.71 894.061 1754.74 899.245C1754.79 906.253 1752.09 911.79 1746.64 915.858C1741.19 919.829 1733.91 921.844 1724.79 921.903Z" fill="#0E0E0E"/>
<rect x="310.436" y="96" width="473" height="871" rx="40" transform="rotate(13.9812 310.436 96)" fill="#FF9898"/>
<rect x="1794.21" y="865.067" width="548.178" height="502.833" rx="70" transform="rotate(-24.0991 1794.21 865.067)" fill="#9F9DFF"/>
<ellipse cx="1990.24" cy="975.169" rx="32.1005" ry="48.1507" transform="rotate(-29.339 1990.24 975.169)" fill="black"/>
<ellipse cx="2187.35" cy="854.646" rx="32.1005" ry="48.1507" transform="rotate(-28.8382 2187.35 854.646)" fill="black"/>
<path d="M2319.66 969.49C2316.84 946.894 2309.69 925.061 2298.59 905.187C2296.72 901.847 2292.08 900.951 2289.16 903.824C2280.51 912.344 2213.78 977.316 2161.9 1007.75C2105.34 1040.92 2007.15 1067.83 1994.8 1071.14C1990.99 1072.16 1989.18 1076.51 1991.16 1079.93C2002.56 1099.64 2017.66 1116.96 2035.63 1130.95C2053.96 1145.2 2074.91 1155.71 2097.3 1161.87C2119.69 1168.03 2143.07 1169.72 2166.11 1166.85C2189.15 1163.97 2211.4 1156.59 2231.59 1145.11C2251.77 1133.64 2269.5 1118.3 2283.76 1099.97C2298.02 1081.64 2308.53 1060.69 2314.69 1038.3C2320.85 1015.91 2322.54 992.531 2319.66 969.49Z" fill="#171921" stroke="#171921" stroke-width="10"/>
<mask id="mask0" mask-type="alpha" maskUnits="userSpaceOnUse" x="1994" y="906" width="385" height="320">
<path d="M2293.58 906.484C2304.73 926.099 2311.91 947.719 2314.7 970.109C2317.5 992.499 2315.86 1015.22 2309.87 1036.97C2303.88 1058.73 2293.67 1079.09 2279.82 1096.9C2265.96 1114.71 2248.73 1129.61 2229.12 1140.76C2209.5 1151.91 2187.88 1159.09 2165.49 1161.89C2143.1 1164.68 2120.38 1163.04 2098.63 1157.05C2076.87 1151.07 2056.51 1140.85 2038.7 1127C2020.89 1113.14 2005.99 1095.92 1994.84 1076.3L2293.58 906.484Z" fill="#171921"/>
</mask>
<g mask="url(#mask0)">
<circle cx="2241.02" cy="1161.61" r="115.44" transform="rotate(-29.6154 2241.02 1161.61)" fill="#FC909F"/>
</g>
<rect x="1476.42" y="974.238" width="588.862" height="581.29" rx="70" transform="rotate(3.57096 1476.42 974.238)" fill="#FFC38C"/>
<path d="M368.302 419.278C362.853 417.921 358.496 415.748 355.234 412.759C352.018 409.782 349.902 406.164 348.885 401.904C347.868 397.644 348.003 392.929 349.29 387.759C350.589 382.542 352.709 378.296 355.652 375.022C358.605 371.701 362.224 369.486 366.507 368.376C370.802 367.219 375.581 367.296 380.844 368.607C384.291 369.465 387.4 370.783 390.173 372.562C392.957 374.294 395.13 376.294 396.692 378.563L391.948 384.801C390.188 382.533 388.26 380.742 386.163 379.428C384.066 378.115 381.644 377.116 378.896 376.432C373.679 375.133 369.343 375.661 365.888 378.016C362.479 380.382 360.067 384.407 358.652 390.09C357.226 395.819 357.516 400.516 359.521 404.181C361.527 407.846 365.232 410.351 370.635 411.697C372.172 412.079 373.761 412.351 375.403 412.513C377.103 412.639 378.808 412.643 380.52 412.525L383.372 401.067L372.054 398.249L373.706 391.612L392.501 396.291L386.604 419.976C384.043 420.526 381.121 420.738 377.838 420.613C374.555 420.488 371.376 420.043 368.302 419.278ZM412.062 430.173C408.196 429.21 405.045 427.659 402.61 425.519C400.175 423.38 398.519 420.791 397.643 417.753C396.814 414.727 396.851 411.398 397.756 407.765C398.637 404.225 400.13 401.307 402.235 399.012C404.387 396.728 406.929 395.16 409.862 394.307C412.853 393.419 416.002 393.387 419.309 394.21C424.153 395.417 427.59 397.905 429.619 401.675C431.695 405.456 432.072 410.002 430.75 415.312L430.106 417.897L405.653 411.808C404.786 418.073 407.52 421.993 413.854 423.57C415.764 424.046 417.743 424.242 419.792 424.158C421.852 424.028 423.831 423.532 425.728 422.668L426.712 429.146C424.745 430.091 422.429 430.652 419.764 430.829C417.098 431.006 414.531 430.788 412.062 430.173ZM418.18 400.236C415.618 399.598 413.348 399.874 411.37 401.063C409.392 402.253 407.904 404.158 406.905 406.778L424.093 411.057C424.614 408.17 424.361 405.807 423.335 403.968C422.367 402.095 420.649 400.851 418.18 400.236ZM433.265 434.71L441.772 400.545L450.295 402.667L448.973 407.977C450.625 406.311 452.556 405.209 454.768 404.671C457.026 404.145 459.389 404.19 461.858 404.804C469.916 406.81 472.779 412.495 470.448 421.857L465.264 442.677L456.531 440.503L461.61 420.102C462.271 417.447 462.24 415.386 461.517 413.92C460.841 412.465 459.454 411.477 457.358 410.955C454.796 410.317 452.544 410.622 450.601 411.87C448.716 413.082 447.443 415.016 446.782 417.671L441.999 436.885L433.265 434.71ZM490.799 449.777C486.933 448.814 483.782 447.263 481.347 445.123C478.912 442.984 477.256 440.395 476.38 437.357C475.551 434.331 475.588 431.002 476.493 427.369C477.374 423.829 478.867 420.911 480.972 418.615C483.124 416.332 485.666 414.763 488.599 413.911C491.59 413.023 494.739 412.991 498.046 413.814C502.89 415.02 506.327 417.508 508.356 421.278C510.432 425.06 510.809 429.606 509.487 434.916L508.843 437.501L484.39 431.412C483.523 437.676 486.256 441.597 492.591 443.174C494.501 443.65 496.48 443.846 498.529 443.762C500.589 443.632 502.568 443.135 504.465 442.272L505.449 448.75C503.482 449.695 501.166 450.256 498.5 450.433C495.835 450.61 493.267 450.391 490.799 449.777ZM496.917 419.84C494.355 419.202 492.085 419.478 490.107 420.667C488.129 421.857 486.641 423.761 485.642 426.382L502.83 430.661C503.351 427.773 503.098 425.41 502.072 423.572C501.104 421.699 499.385 420.455 496.917 419.84ZM512.002 454.314L520.508 420.149L529.032 422.271L527.536 428.28C530.222 424.645 534.365 423.302 539.966 424.251L542.673 424.703L541.388 432.248L536.236 431.484C530.367 430.617 526.772 432.838 525.45 438.148L520.875 456.523L512.002 454.314ZM550.096 464.54C547.627 463.926 545.531 462.909 543.806 461.49C542.14 460.037 540.951 458.356 540.239 456.447C539.574 454.55 539.496 452.577 540.006 450.528C540.632 448.012 541.777 446.195 543.441 445.076C545.116 443.91 547.502 443.367 550.599 443.445C553.696 443.524 557.713 444.178 562.65 445.407L565.096 446.016L565.461 444.548C566.041 442.22 565.946 440.415 565.176 439.135C564.407 437.855 562.811 436.914 560.389 436.311C558.479 435.835 556.448 435.651 554.294 435.758C552.152 435.818 549.905 436.199 547.554 436.9L546.518 430.335C547.938 429.798 549.538 429.429 551.319 429.23C553.158 428.995 555.027 428.941 556.924 429.067C558.88 429.159 560.673 429.407 562.304 429.813C567.287 431.054 570.7 433.14 572.543 436.072C574.396 438.958 574.72 442.822 573.514 447.666L568.365 468.347L560.191 466.312L561.548 460.862C560.28 462.575 558.646 463.775 556.644 464.464C554.654 465.106 552.471 465.132 550.096 464.54ZM553.408 458.984C555.691 459.552 557.774 459.23 559.659 458.018C561.59 456.817 562.857 455.005 563.46 452.583L563.843 451.046L561.468 450.455C557.089 449.364 553.952 448.954 552.054 449.224C550.215 449.458 549.075 450.461 548.634 452.231C548.252 453.768 548.474 455.159 549.302 456.404C550.13 457.648 551.498 458.509 553.408 458.984ZM588.933 474.21C584.881 473.201 582.149 471.359 580.738 468.682C579.385 465.971 579.242 462.473 580.309 458.188L589.493 421.298L598.227 423.472L589.146 459.943C588.103 464.135 589.351 466.672 592.891 467.553C593.403 467.681 593.921 467.785 594.445 467.866C594.969 467.947 595.481 467.975 595.982 467.952L594.12 474.834C592.339 474.835 590.61 474.628 588.933 474.21Z" fill="white"/>
<path d="M317.882 571.609C314.016 570.646 310.551 569.264 307.488 567.463C304.436 565.615 301.983 563.545 300.13 561.253L304.612 554.875C306.488 557.073 308.667 558.951 311.148 560.509C313.676 562.078 316.547 563.263 319.761 564.063C323.44 564.979 326.269 565.041 328.248 564.247C330.238 563.407 331.476 562.009 331.963 560.052C332.369 558.422 332.082 556.991 331.103 555.757C330.171 554.536 328.336 553.263 325.599 551.938L318.314 548.418C310.021 544.375 306.762 538.79 308.536 531.663C309.301 528.589 310.783 526.114 312.982 524.237C315.18 522.361 317.88 521.154 321.081 520.615C324.282 520.076 327.769 520.277 331.542 521.216C334.895 522.051 337.912 523.346 340.591 525.102C343.282 526.81 345.379 528.816 346.883 531.12L342.489 537.149C339.434 532.926 335.136 530.124 329.593 528.744C326.379 527.944 323.696 527.993 321.543 528.892C319.39 529.79 318.041 531.334 317.496 533.523C317.079 535.2 317.301 536.69 318.164 537.993C319.038 539.249 320.757 540.493 323.319 541.725L330.534 545.228C334.902 547.354 337.943 549.744 339.657 552.396C341.417 555.061 341.863 558.14 340.993 561.633C340.262 564.567 338.827 566.955 336.686 568.797C334.546 570.638 331.852 571.822 328.605 572.349C325.415 572.841 321.841 572.594 317.882 571.609ZM356.509 581.226C348.125 579.139 345.104 573.39 347.446 563.982L352.613 543.231L361.346 545.406L356.145 566.296C355.542 568.718 355.585 570.633 356.273 572.041C356.961 573.449 358.376 574.42 360.519 574.953C362.848 575.533 364.955 575.217 366.84 574.004C368.736 572.745 370.015 570.788 370.676 568.133L375.459 548.919L384.193 551.094L375.686 585.259L367.163 583.137L368.432 578.036C365.188 581.334 361.213 582.397 356.509 581.226ZM381.645 600.098L393.283 553.357L401.806 555.479L400.449 560.929C401.892 559.309 403.73 558.184 405.964 557.553C408.246 556.934 410.644 556.938 413.159 557.564C416.14 558.306 418.569 559.677 420.445 561.678C422.368 563.69 423.627 566.18 424.224 569.148C424.832 572.07 424.678 575.37 423.762 579.05C422.857 582.683 421.44 585.694 419.51 588.082C417.591 590.424 415.334 592.039 412.739 592.926C410.144 593.813 407.332 593.88 404.305 593.126C401.883 592.523 399.821 591.466 398.12 589.954C396.477 588.407 395.363 586.621 394.779 584.596L390.378 602.272L381.645 600.098ZM403.512 585.88C406.12 586.529 408.448 586.12 410.496 584.651C412.555 583.135 414.043 580.538 414.959 576.858C415.886 573.132 415.785 570.163 414.653 567.953C413.534 565.695 411.669 564.242 409.061 563.592C406.453 562.943 404.125 563.353 402.077 564.821C400.041 566.244 398.559 568.818 397.632 572.544C396.716 576.224 396.812 579.216 397.92 581.52C399.04 583.777 400.904 585.231 403.512 585.88ZM423.538 610.529L435.175 563.787L443.699 565.91L442.342 571.359C443.784 569.74 445.623 568.615 447.857 567.984C450.139 567.365 452.537 567.368 455.052 567.994C458.033 568.737 460.462 570.108 462.338 572.108C464.261 574.121 465.52 576.611 466.117 579.579C466.725 582.5 466.571 585.801 465.655 589.481C464.75 593.114 463.333 596.124 461.403 598.513C459.484 600.855 457.227 602.469 454.632 603.356C452.037 604.244 449.225 604.31 446.198 603.557C443.776 602.954 441.714 601.896 440.013 600.384C438.37 598.838 437.256 597.052 436.672 595.027L432.271 612.703L423.538 610.529ZM445.405 596.31C448.013 596.96 450.341 596.55 452.389 595.081C454.448 593.566 455.936 590.968 456.852 587.289C457.779 583.562 457.678 580.594 456.546 578.383C455.426 576.126 453.562 574.672 450.954 574.023C448.346 573.373 446.018 573.783 443.97 575.252C441.934 576.674 440.452 579.248 439.525 582.975C438.608 586.654 438.704 589.646 439.813 591.95C440.932 594.208 442.797 595.661 445.405 596.31ZM483.968 612.961C480.429 612.079 477.534 610.592 475.285 608.499C473.036 606.405 471.521 603.851 470.738 600.837C469.966 597.776 470.033 594.429 470.938 590.796C471.842 587.163 473.347 584.198 475.452 581.903C477.557 579.608 480.093 578.063 483.061 577.268C486.029 576.474 489.283 576.517 492.823 577.398C496.363 578.28 499.257 579.767 501.506 581.86C503.755 583.954 505.271 586.508 506.054 589.522C506.836 592.537 506.776 595.86 505.871 599.494C504.966 603.127 503.456 606.114 501.339 608.456C499.234 610.752 496.698 612.297 493.73 613.091C490.762 613.886 487.508 613.842 483.968 612.961ZM485.621 606.323C488.229 606.973 490.557 606.563 492.605 605.094C494.664 603.579 496.152 600.981 497.068 597.302C497.996 593.575 497.894 590.607 496.762 588.396C495.643 586.139 493.778 584.685 491.17 584.036C488.562 583.386 486.234 583.796 484.186 585.265C482.15 586.687 480.669 589.261 479.741 592.988C478.825 596.667 478.921 599.659 480.029 601.963C481.149 604.221 483.013 605.674 485.621 606.323ZM508.817 618.406L517.324 584.241L525.848 586.363L524.352 592.371C527.037 588.737 531.18 587.394 536.781 588.343L539.488 588.795L538.203 596.34L533.051 595.576C527.183 594.709 523.588 596.93 522.266 602.24L517.691 620.615L508.817 618.406ZM553.632 630.306C544.596 628.056 541.192 622.459 543.418 613.516L547.123 598.635L540.556 597L542.191 590.432L548.759 592.067L551.298 581.867L560.032 584.041L557.492 594.242L567.832 596.816L566.197 603.384L555.857 600.809L552.273 615.202C551.717 617.438 551.788 619.236 552.488 620.597C553.188 621.959 554.632 622.912 556.821 623.457C557.474 623.62 558.166 623.718 558.9 623.752C559.645 623.74 560.413 623.733 561.205 623.732L560.932 630.491C559.978 630.748 558.813 630.854 557.44 630.808C556.113 630.775 554.843 630.607 553.632 630.306Z" fill="white"/>
<path d="M241.081 717.66L235.948 664.073L245.171 666.369L248.352 705.744L270.253 672.614L276.89 674.266L280.299 714.218L302.042 680.529L310.776 682.703L280.975 727.593L273.57 725.749L269.918 687.073L248.487 719.504L241.081 717.66ZM315.442 736.917C311.902 736.035 309.008 734.548 306.759 732.455C304.51 730.361 302.994 727.807 302.211 724.793C301.44 721.732 301.506 718.385 302.411 714.752C303.316 711.119 304.82 708.154 306.925 705.859C309.03 703.563 311.567 702.018 314.534 701.224C317.502 700.429 320.756 700.473 324.296 701.354C327.836 702.236 330.73 703.723 332.979 705.816C335.228 707.91 336.744 710.464 337.527 713.478C338.31 716.492 338.249 719.816 337.344 723.449C336.44 727.082 334.929 730.07 332.813 732.412C330.708 734.707 328.171 736.252 325.204 737.047C322.236 737.841 318.982 737.798 315.442 736.917ZM317.094 730.279C319.703 730.929 322.031 730.519 324.078 729.05C326.137 727.535 327.625 724.937 328.541 721.258C329.469 717.531 329.367 714.563 328.236 712.352C327.116 710.094 325.252 708.641 322.644 707.992C320.035 707.342 317.707 707.752 315.66 709.221C313.624 710.643 312.142 713.217 311.214 716.943C310.298 720.623 310.394 723.615 311.502 725.919C312.622 728.176 314.486 729.63 317.094 730.279ZM340.291 742.361L348.797 708.197L357.321 710.319L355.825 716.327C358.511 712.693 362.654 711.35 368.255 712.299L370.962 712.75L369.677 720.295L364.524 719.532C358.656 718.665 355.061 720.886 353.739 726.196L349.164 744.571L340.291 742.361ZM367.651 749.174L379.915 699.917L388.648 702.092L381.272 731.715L381.412 731.75L398.794 720.645L409.344 723.271L389.763 735.758L401.816 757.68L391.126 755.018L380.316 736.152L380.177 736.117L376.384 751.348L367.651 749.174ZM416.895 762.176C414.008 761.457 411.393 760.435 409.052 759.11C406.71 757.786 404.864 756.262 403.512 754.541L407.174 749.368C408.607 750.962 410.314 752.351 412.294 753.537C414.286 754.676 416.353 755.512 418.496 756.045C420.732 756.602 422.478 756.641 423.735 756.163C425.05 755.649 425.864 754.764 426.177 753.506C426.664 751.55 425.533 749.933 422.785 748.655L416.129 745.588C410.491 742.997 408.299 739.186 409.552 734.156C410.108 731.92 411.195 730.138 412.812 728.809C414.475 727.492 416.512 726.664 418.921 726.324C421.331 725.984 423.956 726.168 426.798 726.875C429.22 727.478 431.462 728.407 433.523 729.662C435.597 730.871 437.257 732.348 438.504 734.093L434.703 739.231C433.63 737.777 432.22 736.486 430.473 735.358C428.772 734.242 427.06 733.47 425.337 733.041C423.054 732.472 421.256 732.445 419.941 732.959C418.672 733.484 417.876 734.398 417.551 735.702C417.041 737.752 418.055 739.34 420.594 740.467L427.25 743.534C430.139 744.847 432.166 746.44 433.332 748.313C434.544 750.198 434.837 752.398 434.211 754.913C433.365 758.313 431.37 760.661 428.228 761.956C425.098 763.205 421.32 763.278 416.895 762.176ZM438.678 766.858L450.942 717.601L459.675 719.776L454.683 739.828C456.311 738.255 458.219 737.246 460.407 736.801C462.607 736.31 464.895 736.36 467.27 736.952C475.328 738.958 478.192 744.642 475.861 754.004L470.677 774.825L461.944 772.65L467.023 752.249C467.684 749.594 467.653 747.534 466.93 746.068C466.253 744.613 464.867 743.625 462.771 743.103C460.209 742.465 457.957 742.77 456.014 744.017C454.129 745.23 452.856 747.164 452.195 749.819L447.411 769.032L438.678 766.858ZM494.954 781.611C491.414 780.73 488.519 779.242 486.271 777.149C484.022 775.056 482.506 772.502 481.723 769.487C480.952 766.426 481.018 763.079 481.923 759.446C482.827 755.813 484.332 752.849 486.437 750.553C488.542 748.258 491.078 746.713 494.046 745.919C497.014 745.124 500.268 745.168 503.808 746.049C507.348 746.93 510.242 748.418 512.491 750.511C514.74 752.604 516.256 755.158 517.039 758.173C517.822 761.187 517.761 764.511 516.856 768.144C515.952 771.777 514.441 774.765 512.325 777.107C510.22 779.402 507.683 780.947 504.715 781.742C501.748 782.536 498.494 782.493 494.954 781.611ZM496.606 774.974C499.215 775.623 501.543 775.214 503.59 773.745C505.649 772.229 507.137 769.632 508.053 765.952C508.981 762.226 508.879 759.257 507.748 757.047C506.628 754.789 504.764 753.336 502.155 752.686C499.547 752.037 497.219 752.447 495.172 753.915C493.136 755.338 491.654 757.912 490.726 761.638C489.81 765.318 489.906 768.31 491.014 770.614C492.134 772.871 493.998 774.324 496.606 774.974ZM516.672 799.632L528.309 752.891L536.833 755.013L535.476 760.463C536.918 758.843 538.756 757.718 540.991 757.087C543.272 756.468 545.67 756.472 548.186 757.098C551.167 757.84 553.595 759.212 555.471 761.212C557.394 763.224 558.654 765.714 559.25 768.682C559.859 771.604 559.705 774.905 558.789 778.584C557.884 782.217 556.467 785.228 554.536 787.616C552.618 789.958 550.361 791.573 547.766 792.46C545.17 793.347 542.359 793.414 539.331 792.66C536.909 792.057 534.848 791 533.146 789.488C531.504 787.941 530.39 786.155 529.806 784.13L525.405 801.807L516.672 799.632ZM538.539 785.414C541.147 786.064 543.475 785.654 545.522 784.185C547.581 782.67 549.069 780.072 549.985 776.392C550.913 772.666 550.811 769.698 549.68 767.487C548.56 765.229 546.696 763.776 544.088 763.126C541.479 762.477 539.151 762.887 537.104 764.356C535.068 765.778 533.586 768.352 532.658 772.078C531.742 775.758 531.838 778.75 532.946 781.054C534.066 783.311 535.93 784.765 538.539 785.414Z" fill="white"/>
<path fill-rule="evenodd" clip-rule="evenodd" d="M1606.46 1225.34C1606.68 1226.13 1607.72 1226.29 1608.22 1225.64C1617.43 1213.69 1633.87 1204.64 1653.41 1202.32C1665.46 1200.89 1676.96 1202.22 1686.77 1205.67C1687.5 1205.93 1688.25 1205.3 1688.08 1204.54C1683.39 1183.75 1663.65 1169.46 1642.03 1172.03C1618.92 1174.77 1602.42 1195.73 1605.16 1218.83C1605.43 1221.07 1605.87 1223.24 1606.46 1225.34Z" fill="#171921"/>
<path fill-rule="evenodd" clip-rule="evenodd" d="M1855.71 1186.46C1855.93 1187.25 1856.96 1187.41 1857.47 1186.76C1866.6 1174.92 1882.88 1165.97 1902.23 1163.67C1914.16 1162.25 1925.55 1163.57 1935.26 1166.98C1936 1167.24 1936.75 1166.61 1936.57 1165.85C1931.92 1145.27 1912.37 1131.11 1890.95 1133.66C1868.06 1136.38 1851.71 1157.14 1854.43 1180.03C1854.69 1182.23 1855.12 1184.38 1855.71 1186.46Z" fill="#171921"/>
<path d="M1912.16 1310.43C1918.23 1288.48 1919.99 1265.57 1917.37 1242.96C1916.93 1239.16 1912.98 1236.55 1909.18 1238.08C1897.92 1242.63 1811.38 1277.03 1751.79 1285.23C1686.83 1294.16 1585.83 1281.33 1573.16 1279.65C1569.25 1279.13 1565.9 1282.46 1566.42 1286.37C1569.39 1308.94 1576.68 1330.74 1587.92 1350.55C1599.37 1370.74 1614.69 1388.49 1633 1402.77C1651.31 1417.05 1672.25 1427.58 1694.63 1433.77C1717.02 1439.95 1740.4 1441.67 1763.44 1438.81C1786.48 1435.96 1808.74 1428.6 1828.94 1417.15C1849.14 1405.7 1866.89 1390.38 1881.16 1372.07C1895.44 1353.75 1905.98 1332.81 1912.16 1310.43Z" fill="#171921" stroke="#171921" stroke-width="10"/>
<mask id="mask1" mask-type="alpha" maskUnits="userSpaceOnUse" x="1571" y="1242" width="363" height="213">
<path d="M1912.25 1242.24C1915.02 1264.63 1913.35 1287.35 1907.34 1309.1C1901.33 1330.85 1891.1 1351.2 1877.22 1368.99C1863.35 1386.78 1846.1 1401.67 1826.47 1412.8C1806.85 1423.93 1785.22 1431.08 1762.83 1433.85C1740.43 1436.62 1717.71 1434.96 1695.97 1428.95C1674.22 1422.94 1653.87 1412.7 1636.07 1398.83C1618.28 1384.95 1603.39 1367.71 1592.27 1348.08C1581.14 1328.45 1573.98 1306.82 1571.21 1284.43L1912.25 1242.24Z" fill="#171921"/>
</mask>
<g mask="url(#mask1)">
<circle cx="1765.82" cy="1457.67" r="115.44" transform="rotate(-7.05286 1765.82 1457.67)" fill="#FC909F"/>
</g>
</g>
<defs>
<filter id="filter0_d" x="0" y="0" width="2600" height="1696" filterUnits="userSpaceOnUse" color-interpolation-filters="sRGB">
<feFlood flood-opacity="0" result="BackgroundImageFix"/>
<feColorMatrix in="SourceAlpha" type="matrix" values="0 0 0 0 0 0 0 0 0 0 0 0 0 0 0 0 0 0 127 0"/>
<feOffset dy="4"/>
<feGaussianBlur stdDeviation="50"/>
<feColorMatrix type="matrix" values="0 0 0 0 0.908333 0 0 0 0 0.908333 0 0 0 0 0.908333 0 0 0 0.85 0"/>
<feBlend mode="normal" in2="BackgroundImageFix" result="effect1_dropShadow"/>
<feBlend mode="normal" in="SourceGraphic" in2="effect1_dropShadow" result="shape"/>
</filter>
</defs>
</svg>
