<svg width="1500" height="1500" viewBox="0 0 1500 1500" fill="none" xmlns="http://www.w3.org/2000/svg">
<g clip-path="url(#clip0)">
<rect width="1500" height="1500" rx="750" fill="url(#paint0_linear)"/>
<rect x="254" y="576.89" width="725" height="1397" rx="63" transform="rotate(-21.0909 254 576.89)" fill="white"/>
<rect x="301.393" y="594.098" width="649" height="769.659" rx="40" transform="rotate(-21.0909 301.393 594.098)" fill="#A1C4FD"/>
<rect x="595.882" y="1346.53" width="641" height="133.131" rx="36" transform="rotate(-21.0909 595.882 1346.53)" stroke="#F5F5F5" stroke-width="8"/>
<path fill-rule="evenodd" clip-rule="evenodd" d="M586.459 780.343C586.682 781.133 587.715 781.293 588.216 780.642C597.429 768.688 613.874 759.644 633.41 757.323C645.458 755.891 656.962 757.221 666.768 760.669C667.504 760.928 668.254 760.3 668.082 759.539C663.392 738.754 643.65 724.46 622.026 727.029C598.923 729.775 582.419 750.729 585.165 773.832C585.43 776.068 585.867 778.242 586.459 780.343Z" fill="#171921"/>
<path fill-rule="evenodd" clip-rule="evenodd" d="M835.709 741.458C835.931 742.248 836.965 742.408 837.466 741.758C846.596 729.922 862.882 720.969 882.228 718.67C894.157 717.253 905.549 718.567 915.261 721.98C915.997 722.239 916.746 721.61 916.574 720.849C911.922 700.266 892.368 686.113 870.95 688.658C848.062 691.378 831.712 712.137 834.432 735.025C834.694 737.234 835.125 739.382 835.709 741.458Z" fill="#171921"/>
<path d="M892.949 857.192C899.014 835.244 900.781 812.335 898.158 789.724C897.718 785.924 893.769 783.314 889.973 784.847C878.713 789.395 792.166 823.792 732.575 831.99C667.62 840.925 566.62 828.095 553.944 826.41C550.037 825.891 546.692 829.218 547.207 833.136C550.174 855.707 557.471 877.497 568.704 897.308C580.156 917.507 595.476 935.253 613.786 949.532C632.097 963.81 653.041 974.343 675.423 980.528C697.804 986.712 721.184 988.428 744.229 985.577C767.273 982.726 789.53 975.364 809.729 963.911C829.928 952.458 847.674 937.139 861.953 918.828C876.232 900.517 886.764 879.573 892.949 857.192Z" fill="#171921" stroke="#171921" stroke-width="10"/>
<mask id="mask0" mask-type="alpha" maskUnits="userSpaceOnUse" x="552" y="789" width="343" height="193">
<path d="M893.036 789C895.806 811.393 894.139 834.112 888.129 855.86C882.12 877.609 871.885 897.96 858.01 915.754C844.135 933.547 826.891 948.433 807.263 959.561C787.635 970.69 766.007 977.844 743.615 980.615C721.222 983.385 698.503 981.718 676.754 975.708C655.006 969.698 634.654 959.464 616.861 945.589C599.068 931.714 584.182 914.47 573.053 894.842C561.924 875.214 554.77 853.586 552 831.193L893.036 789Z" fill="#171921"/>
</mask>
<g mask="url(#mask0)">
<circle cx="746.608" cy="1004.43" r="115.44" transform="rotate(-7.05286 746.608 1004.43)" fill="#FC909F"/>
</g>
<path d="M664.654 1404.68L647.158 1384.23L651.591 1382.52L664.206 1397.71L663.65 1377.86L666.84 1376.63L679.713 1392L678.932 1371.97L683.131 1370.35L683.833 1397.28L680.273 1398.66L667.666 1383.88L668.214 1403.31L664.654 1404.68ZM701.22 1390.96C699.362 1391.68 697.627 1391.95 696.016 1391.77C694.404 1391.6 692.983 1391.01 691.752 1390.02C690.543 1389.02 689.602 1387.65 688.928 1385.9C688.272 1384.2 688.045 1382.58 688.247 1381.03C688.471 1379.48 689.061 1378.11 690.016 1376.92C690.985 1375.69 692.264 1374.78 693.854 1374.16C696.183 1373.27 698.304 1373.3 700.218 1374.26C702.153 1375.21 703.614 1376.96 704.598 1379.51L705.078 1380.75L693.322 1385.29C694.766 1388.1 697.012 1388.92 700.057 1387.75C700.975 1387.39 701.841 1386.9 702.656 1386.28C703.462 1385.63 704.129 1384.86 704.657 1383.97L706.92 1386.33C706.387 1387.28 705.601 1388.18 704.561 1389.02C703.521 1389.86 702.407 1390.5 701.22 1390.96ZM695.123 1376.95C693.892 1377.43 693.042 1378.19 692.574 1379.25C692.107 1380.3 692.045 1381.51 692.389 1382.87L700.652 1379.68C700.035 1378.35 699.253 1377.46 698.305 1377C697.371 1376.51 696.31 1376.5 695.123 1376.95ZM717.04 1384.86C715.092 1385.61 713.445 1385.64 712.099 1384.95C710.766 1384.23 709.702 1382.84 708.908 1380.78L702.068 1363.05L706.266 1361.43L713.029 1378.96C713.806 1380.98 715.045 1381.66 716.747 1381C716.994 1380.9 717.236 1380.8 717.473 1380.68C717.711 1380.56 717.929 1380.43 718.127 1380.27L719.342 1383.63C718.614 1384.14 717.846 1384.55 717.04 1384.86ZM729.483 1380.06C727.759 1380.73 726.125 1380.96 724.581 1380.76C723.028 1380.53 721.654 1379.9 720.459 1378.87C719.264 1377.84 718.33 1376.45 717.656 1374.71C716.982 1372.96 716.751 1371.33 716.961 1369.8C717.163 1368.26 717.773 1366.91 718.79 1365.74C719.799 1364.56 721.165 1363.63 722.889 1362.97C723.942 1362.56 725.048 1362.33 726.207 1362.26C727.367 1362.2 728.399 1362.34 729.304 1362.69L729.189 1366.09C728.408 1365.8 727.596 1365.66 726.753 1365.68C725.933 1365.69 725.187 1365.82 724.515 1366.08C723.06 1366.64 722.106 1367.54 721.654 1368.77C721.216 1369.96 721.321 1371.4 721.968 1373.08C722.607 1374.74 723.505 1375.9 724.66 1376.56C725.828 1377.19 727.141 1377.22 728.596 1376.66C729.246 1376.41 729.888 1376.01 730.523 1375.45C731.158 1374.9 731.664 1374.24 732.039 1373.48L734.421 1375.96C733.974 1376.8 733.293 1377.6 732.379 1378.37C731.479 1379.1 730.513 1379.66 729.483 1380.06ZM744.897 1374.12C743.196 1374.77 741.584 1375 740.062 1374.79C738.54 1374.57 737.186 1373.97 736 1372.96C734.805 1371.93 733.871 1370.54 733.197 1368.79C732.523 1367.04 732.287 1365.4 732.489 1363.85C732.691 1362.31 733.285 1360.95 734.271 1359.77C735.258 1358.59 736.602 1357.68 738.304 1357.02C740.005 1356.36 741.617 1356.14 743.139 1356.35C744.661 1356.56 746.015 1357.17 747.201 1358.18C748.387 1359.19 749.317 1360.57 749.991 1362.31C750.665 1364.06 750.905 1365.72 750.712 1367.28C750.51 1368.83 749.916 1370.19 748.93 1371.37C747.943 1372.54 746.599 1373.46 744.897 1374.12ZM743.667 1370.93C744.921 1370.44 745.756 1369.61 746.172 1368.42C746.579 1367.2 746.441 1365.71 745.759 1363.95C745.068 1362.15 744.174 1360.97 743.075 1360.39C741.969 1359.79 740.788 1359.73 739.534 1360.21C738.28 1360.69 737.445 1361.53 737.029 1362.72C736.605 1363.89 736.738 1365.37 737.429 1367.16C738.111 1368.93 739.01 1370.12 740.126 1370.75C741.232 1371.35 742.413 1371.41 743.667 1370.93ZM756.698 1369.18L750.363 1352.76L754.461 1351.17L755.432 1353.69C755.579 1352.61 755.995 1351.65 756.678 1350.82C757.353 1349.97 758.261 1349.32 759.403 1348.88C761.866 1347.93 763.893 1348.39 765.483 1350.24C765.61 1349.04 766.046 1347.97 766.793 1347.04C767.532 1346.08 768.517 1345.37 769.748 1344.89C773.443 1343.47 776.158 1345.01 777.894 1349.51L781.754 1359.52L777.556 1361.14L773.76 1351.29C773.277 1350.04 772.71 1349.2 772.06 1348.79C771.432 1348.36 770.626 1348.34 769.641 1348.72C768.543 1349.14 767.832 1349.86 767.508 1350.89C767.174 1351.89 767.271 1353.08 767.798 1354.44L771.308 1363.54L767.11 1365.16L763.314 1355.32C762.831 1354.07 762.264 1353.23 761.614 1352.81C760.986 1352.39 760.191 1352.36 759.228 1352.73C758.131 1353.15 757.42 1353.88 757.095 1354.9C756.762 1355.91 756.859 1357.09 757.385 1358.46L760.896 1367.56L756.698 1369.18ZM794.31 1355.06C792.452 1355.78 790.717 1356.05 789.105 1355.87C787.494 1355.69 786.073 1355.11 784.842 1354.12C783.633 1353.12 782.692 1351.75 782.018 1350C781.362 1348.3 781.134 1346.67 781.336 1345.13C781.561 1343.58 782.15 1342.21 783.106 1341.01C784.075 1339.79 785.354 1338.87 786.944 1338.26C789.273 1337.36 791.394 1337.39 793.307 1338.35C795.243 1339.3 796.703 1341.06 797.688 1343.61L798.167 1344.85L786.411 1349.39C787.856 1352.2 790.101 1353.02 793.147 1351.84C794.065 1351.49 794.931 1351 795.745 1350.38C796.551 1349.73 797.218 1348.96 797.746 1348.06L800.01 1350.43C799.477 1351.38 798.69 1352.28 797.65 1353.11C796.61 1353.95 795.497 1354.6 794.31 1355.06ZM788.213 1341.05C786.981 1341.53 786.132 1342.29 785.664 1343.35C785.196 1344.4 785.134 1345.61 785.479 1346.97L793.741 1343.78C793.125 1342.45 792.343 1341.55 791.395 1341.1C790.46 1340.61 789.4 1340.59 788.213 1341.05ZM820.997 1344.77C816.653 1346.44 813.652 1345.13 811.994 1340.83L809.234 1333.68L806.077 1334.89L804.859 1331.74L808.016 1330.52L806.125 1325.61L810.324 1324L812.215 1328.9L817.186 1326.98L818.404 1330.14L813.433 1332.06L816.101 1338.98C816.516 1340.05 817.062 1340.77 817.739 1341.12C818.417 1341.48 819.282 1341.45 820.334 1341.05C820.648 1340.93 820.96 1340.77 821.27 1340.57C821.571 1340.35 821.883 1340.13 822.207 1339.9L824.037 1342.74C823.72 1343.12 823.275 1343.5 822.699 1343.88C822.147 1344.25 821.579 1344.54 820.997 1344.77ZM833.69 1339.87C831.988 1340.53 830.377 1340.75 828.855 1340.54C827.333 1340.33 825.979 1339.72 824.793 1338.71C823.598 1337.68 822.663 1336.29 821.99 1334.54C821.316 1332.8 821.08 1331.15 821.282 1329.61C821.484 1328.06 822.078 1326.7 823.064 1325.53C824.05 1324.35 825.395 1323.43 827.096 1322.77C828.798 1322.12 830.41 1321.89 831.932 1322.11C833.453 1322.32 834.807 1322.93 835.994 1323.93C837.18 1324.94 838.11 1326.32 838.784 1328.07C839.458 1329.81 839.698 1331.47 839.504 1333.04C839.303 1334.58 838.709 1335.94 837.722 1337.12C836.736 1338.3 835.392 1339.21 833.69 1339.87ZM832.46 1336.68C833.713 1336.2 834.548 1335.36 834.964 1334.17C835.372 1332.96 835.234 1331.47 834.552 1329.7C833.861 1327.91 832.966 1326.72 831.868 1326.14C830.761 1325.54 829.581 1325.48 828.327 1325.97C827.073 1326.45 826.238 1327.29 825.822 1328.47C825.398 1329.64 825.531 1331.12 826.222 1332.91C826.904 1334.68 827.803 1335.88 828.918 1336.5C830.025 1337.1 831.206 1337.16 832.46 1336.68ZM854.879 1331.31L845.746 1307.63L856.024 1303.67C858.622 1302.67 860.876 1302.54 862.788 1303.3C864.7 1304.05 866.105 1305.59 867.003 1307.92C867.901 1310.25 867.899 1312.35 866.998 1314.21C866.089 1316.06 864.335 1317.48 861.737 1318.48L855.759 1320.79L859.179 1329.65L854.879 1331.31ZM854.45 1317.39L859.757 1315.35C862.847 1314.16 863.874 1312.22 862.838 1309.53C861.81 1306.86 859.751 1306.13 856.661 1307.32L851.354 1309.37L854.45 1317.39ZM876.059 1323.14L869.725 1306.72L873.822 1305.14L874.937 1308.03C874.991 1305.77 876.301 1304.03 878.865 1302.81L880.103 1302.21L881.745 1305.67L879.417 1306.84C876.767 1308.17 875.934 1310.11 876.918 1312.66L880.325 1321.5L876.059 1323.14ZM896.57 1315.62C894.868 1316.28 893.256 1316.5 891.735 1316.29C890.213 1316.08 888.859 1315.47 887.673 1314.46C886.478 1313.43 885.543 1312.04 884.87 1310.29C884.196 1308.55 883.96 1306.9 884.162 1305.36C884.364 1303.81 884.958 1302.45 885.944 1301.27C886.93 1300.1 888.274 1299.18 889.976 1298.52C891.678 1297.87 893.29 1297.64 894.811 1297.85C896.333 1298.06 897.687 1298.67 898.874 1299.68C900.06 1300.69 900.99 1302.07 901.664 1303.82C902.337 1305.56 902.578 1307.22 902.384 1308.78C902.182 1310.33 901.588 1311.69 900.602 1312.87C899.616 1314.05 898.272 1314.96 896.57 1315.62ZM895.339 1312.43C896.593 1311.94 897.428 1311.11 897.844 1309.92C898.251 1308.71 898.114 1307.22 897.432 1305.45C896.741 1303.66 895.846 1302.47 894.748 1301.89C893.641 1301.29 892.461 1301.23 891.207 1301.71C889.953 1302.2 889.118 1303.03 888.702 1304.22C888.278 1305.39 888.411 1306.87 889.102 1308.66C889.784 1310.43 890.683 1311.63 891.798 1312.25C892.905 1312.85 894.085 1312.91 895.339 1312.43ZM912.812 1308.97L899.356 1295.29L903.823 1293.57L912.822 1303.29L913.127 1289.98L917.326 1288.36L916.439 1307.57L912.812 1308.97ZM917.724 1284.16L916.143 1280.06L920.846 1278.24L922.426 1282.34L917.724 1284.16ZM925.688 1304L919.353 1287.58L923.551 1285.96L929.886 1302.38L925.688 1304ZM940.391 1298.72C939.002 1299.25 937.639 1299.59 936.3 1299.72C934.961 1299.85 933.768 1299.75 932.72 1299.44L932.733 1296.27C933.777 1296.51 934.875 1296.59 936.026 1296.5C937.168 1296.4 938.254 1296.15 939.284 1295.75C940.359 1295.33 941.085 1294.85 941.462 1294.29C941.852 1293.7 941.931 1293.11 941.698 1292.5C941.335 1291.56 940.408 1291.23 938.916 1291.49L935.311 1292.15C932.26 1292.71 930.268 1291.78 929.335 1289.36C928.92 1288.29 928.853 1287.25 929.133 1286.24C929.435 1285.22 930.031 1284.3 930.919 1283.46C931.807 1282.63 932.935 1281.95 934.301 1281.43C935.465 1280.98 936.649 1280.71 937.854 1280.64C939.049 1280.53 940.153 1280.66 941.165 1281.02L941.085 1284.21C940.229 1283.93 939.281 1283.8 938.242 1283.84C937.225 1283.87 936.303 1284.05 935.474 1284.37C934.377 1284.79 933.633 1285.3 933.242 1285.89C932.874 1286.47 932.811 1287.07 933.053 1287.7C933.433 1288.68 934.304 1289.04 935.667 1288.77L939.272 1288.11C940.831 1287.82 942.118 1287.89 943.134 1288.32C944.171 1288.75 944.923 1289.56 945.39 1290.77C946.02 1292.41 945.878 1293.94 944.965 1295.37C944.043 1296.78 942.518 1297.9 940.391 1298.72ZM942.686 1274.53L941.105 1270.43L945.807 1268.62L947.388 1272.71L942.686 1274.53ZM950.649 1294.38L944.314 1277.95L948.513 1276.33L954.848 1292.76L950.649 1294.38ZM966.83 1288.52C965.128 1289.18 963.517 1289.4 961.995 1289.19C960.473 1288.98 959.119 1288.37 957.933 1287.36C956.738 1286.33 955.803 1284.94 955.13 1283.19C954.456 1281.45 954.22 1279.8 954.422 1278.26C954.624 1276.71 955.218 1275.35 956.204 1274.18C957.19 1273 958.534 1272.08 960.236 1271.42C961.938 1270.77 963.55 1270.54 965.072 1270.76C966.593 1270.97 967.947 1271.58 969.134 1272.58C970.32 1273.59 971.25 1274.97 971.924 1276.72C972.597 1278.46 972.838 1280.12 972.644 1281.69C972.442 1283.23 971.848 1284.59 970.862 1285.77C969.876 1286.95 968.532 1287.86 966.83 1288.52ZM965.599 1285.33C966.853 1284.85 967.688 1284.01 968.104 1282.82C968.511 1281.61 968.374 1280.12 967.692 1278.35C967.001 1276.56 966.106 1275.37 965.008 1274.79C963.901 1274.19 962.721 1274.13 961.467 1274.62C960.213 1275.1 959.378 1275.94 958.962 1277.12C958.538 1278.29 958.671 1279.77 959.362 1281.56C960.044 1283.33 960.943 1284.53 962.058 1285.15C963.165 1285.75 964.345 1285.81 965.599 1285.33ZM978.563 1283.61L972.228 1267.18L976.326 1265.6L977.311 1268.16C977.508 1267 977.981 1265.99 978.732 1265.14C979.505 1264.28 980.485 1263.61 981.671 1263.16C985.545 1261.66 988.35 1263.17 990.086 1267.67L993.947 1277.68L989.748 1279.3L985.965 1269.49C985.473 1268.21 984.868 1267.38 984.151 1266.99C983.456 1266.58 982.605 1266.58 981.597 1266.97C980.366 1267.44 979.532 1268.21 979.095 1269.28C978.672 1270.32 978.707 1271.48 979.199 1272.75L982.762 1281.99L978.563 1283.61ZM998.614 1275.88L989.481 1252.2L993.78 1250.54L997.589 1260.41L1009.78 1255.71L1005.97 1245.84L1010.27 1244.18L1019.41 1267.86L1015.11 1269.52L1011.17 1259.3L998.975 1264.01L1002.91 1274.22L998.614 1275.88ZM1029.73 1264.26C1028.54 1264.72 1027.39 1264.91 1026.28 1264.82C1025.18 1264.71 1024.21 1264.36 1023.37 1263.78C1022.55 1263.2 1021.95 1262.41 1021.57 1261.43C1021.11 1260.22 1021.05 1259.15 1021.41 1258.21C1021.76 1257.25 1022.58 1256.34 1023.87 1255.49C1025.16 1254.63 1026.99 1253.74 1029.37 1252.83L1030.54 1252.37L1030.27 1251.67C1029.84 1250.55 1029.28 1249.84 1028.6 1249.53C1027.92 1249.23 1026.99 1249.3 1025.83 1249.75C1024.91 1250.11 1024.03 1250.62 1023.18 1251.28C1022.32 1251.92 1021.51 1252.72 1020.75 1253.68L1018.44 1251.29C1018.86 1250.67 1019.41 1250.05 1020.08 1249.46C1020.77 1248.84 1021.52 1248.28 1022.33 1247.78C1023.16 1247.26 1023.96 1246.85 1024.75 1246.54C1027.14 1245.62 1029.14 1245.49 1030.73 1246.16C1032.32 1246.81 1033.56 1248.3 1034.46 1250.63L1038.3 1260.57L1034.37 1262.09L1033.36 1259.47C1033.33 1260.53 1033.01 1261.49 1032.38 1262.35C1031.75 1263.18 1030.87 1263.82 1029.73 1264.26ZM1029.49 1261.04C1030.58 1260.61 1031.34 1259.88 1031.77 1258.85C1032.21 1257.8 1032.21 1256.69 1031.76 1255.53L1031.48 1254.79L1030.33 1255.23C1028.23 1256.04 1026.83 1256.78 1026.13 1257.43C1025.44 1258.06 1025.26 1258.79 1025.59 1259.64C1025.88 1260.38 1026.37 1260.89 1027.06 1261.16C1027.76 1261.43 1028.57 1261.39 1029.49 1261.04ZM1050.28 1256.34C1048.55 1257 1046.92 1257.23 1045.38 1257.03C1043.82 1256.81 1042.45 1256.18 1041.25 1255.15C1040.06 1254.12 1039.13 1252.73 1038.45 1250.98C1037.78 1249.23 1037.55 1247.6 1037.76 1246.08C1037.96 1244.53 1038.57 1243.18 1039.59 1242.02C1040.59 1240.83 1041.96 1239.9 1043.68 1239.24C1044.74 1238.83 1045.84 1238.6 1047 1238.54C1048.16 1238.48 1049.19 1238.62 1050.1 1238.96L1049.98 1242.37C1049.2 1242.08 1048.39 1241.94 1047.55 1241.95C1046.73 1241.96 1045.98 1242.1 1045.31 1242.35C1043.86 1242.92 1042.9 1243.81 1042.45 1245.04C1042.01 1246.24 1042.12 1247.68 1042.76 1249.36C1043.4 1251.01 1044.3 1252.17 1045.46 1252.83C1046.62 1253.46 1047.94 1253.5 1049.39 1252.94C1050.04 1252.68 1050.68 1252.28 1051.32 1251.73C1051.95 1251.18 1052.46 1250.52 1052.83 1249.76L1055.22 1252.23C1054.77 1253.07 1054.09 1253.88 1053.17 1254.64C1052.27 1255.37 1051.31 1255.94 1050.28 1256.34ZM1058.4 1252.82L1049.27 1229.14L1053.47 1227.52L1058.96 1241.76L1059.03 1241.73L1062.95 1232.2L1068.02 1230.24L1063.6 1240.97L1074.83 1246.48L1069.69 1248.46L1059.84 1243.85L1059.78 1243.88L1062.6 1251.2L1058.4 1252.82ZM1082.29 1243.99C1080.9 1244.53 1079.54 1244.86 1078.2 1244.99C1076.86 1245.12 1075.67 1245.03 1074.62 1244.71L1074.63 1241.54C1075.67 1241.78 1076.77 1241.86 1077.92 1241.78C1079.07 1241.67 1080.15 1241.42 1081.18 1241.02C1082.26 1240.61 1082.98 1240.12 1083.36 1239.56C1083.75 1238.98 1083.83 1238.38 1083.6 1237.78C1083.23 1236.84 1082.31 1236.5 1080.81 1236.76L1077.21 1237.42C1074.16 1237.98 1072.17 1237.05 1071.23 1234.63C1070.82 1233.56 1070.75 1232.52 1071.03 1231.51C1071.33 1230.49 1071.93 1229.57 1072.82 1228.74C1073.71 1227.91 1074.83 1227.23 1076.2 1226.7C1077.36 1226.25 1078.55 1225.99 1079.75 1225.91C1080.95 1225.81 1082.05 1225.93 1083.06 1226.29L1082.98 1229.48C1082.13 1229.2 1081.18 1229.07 1080.14 1229.11C1079.12 1229.15 1078.2 1229.32 1077.37 1229.64C1076.27 1230.07 1075.53 1230.57 1075.14 1231.16C1074.77 1231.74 1074.71 1232.34 1074.95 1232.97C1075.33 1233.95 1076.2 1234.31 1077.56 1234.04L1081.17 1233.39C1082.73 1233.09 1084.02 1233.16 1085.03 1233.59C1086.07 1234.02 1086.82 1234.83 1087.29 1236.04C1087.92 1237.68 1087.78 1239.21 1086.86 1240.64C1085.94 1242.05 1084.42 1243.17 1082.29 1243.99Z" fill="#C2C2C2"/>
</g>
<defs>
<linearGradient id="paint0_linear" x1="750" y1="0" x2="750" y2="1500" gradientUnits="userSpaceOnUse">
<stop stop-color="#A1C4FD"/>
<stop offset="1" stop-color="#C2E9FB"/>
</linearGradient>
<clipPath id="clip0">
<rect width="1500" height="1500" rx="750" fill="white"/>
</clipPath>
</defs>
</svg>
