<svg xmlns="http://www.w3.org/2000/svg" width="260" height="260" fill="none" viewBox="0 0 260 260"><rect width="248" height="248" x="6" y="6" fill="#2F3851" rx="124"/><path fill="#485E99" d="M237.612 125.793C239.957 127.752 239.957 131.248 237.612 133.207C220.379 147.602 156.956 199 130 199C103.044 199 39.6215 147.602 22.3878 133.207C20.0426 131.248 20.0426 127.752 22.3878 125.793C39.6215 111.398 103.044 60 130 60C156.956 60 220.379 111.398 237.612 125.793Z"/><ellipse cx="130" cy="129.5" fill="#485E99" rx="68" ry="69.5"/><circle cx="129.5" cy="129.5" r="51.5" fill="#fff" stroke="#FF8B8B" stroke-width="8"/><circle cx="114.5" cy="117.5" r="31.5" fill="#283351" stroke="#FF8B8B" stroke-width="8"/><rect width="248" height="248" x="6" y="6" stroke="#FF8B8B" stroke-width="12" rx="124"/></svg>